<svg width="82" height="32" viewBox="0 0 82 32" fill="none" xmlns="http://www.w3.org/2000/svg">
<rect x="0.5" y="0.5" width="81" height="31" stroke="white"/>
<g clip-path="url(#clip0_193_5195)">
<path d="M26.6405 21.2608H29.0603V10H26.6405V21.2608ZM41.9594 14.7584V13.757H41.9182H39.8004H39.6802V21.2778H41.9559V17.3369C41.9559 16.1958 43.2465 15.6985 44.1527 15.9369H44.1733V13.757C43.2465 13.74 42.4021 14.1385 41.9594 14.7584ZM34.1781 19.5202C32.9905 19.5202 32.0431 18.621 32.0431 17.5004C32.0431 16.3797 33.0111 15.4805 34.1781 15.4805C35.3657 15.4805 36.313 16.3797 36.313 17.5004C36.3165 18.621 35.3485 19.5202 34.1781 19.5202ZM36.2959 14.2611C35.6506 13.8013 34.844 13.5424 33.979 13.5424C31.7617 13.5424 29.9871 15.3238 29.9871 17.5038C29.9871 19.6837 31.7822 21.4651 33.979 21.4651C34.844 21.4651 35.63 21.1858 36.2959 20.7464V21.2676H38.2695V13.7468H36.2959V14.2611ZM49.8573 13.539C48.9512 13.539 48.0828 13.8183 47.5199 14.5779V13.7366H47.4787H45.3609H45.2408V21.2574H47.5164V17.1359C47.5164 15.9948 48.2819 15.4362 49.2292 15.4362C50.2178 15.4362 50.8013 16.0357 50.8013 17.1155V21.2369H53.0804V16.4581C53.0838 14.7414 51.6731 13.539 49.8573 13.539ZM64.5687 18.6006C63.7827 18.6006 63.1374 19.2409 63.1374 20.0209C63.1374 20.8009 63.7827 21.4413 64.5687 21.4413C65.3547 21.4413 66 20.8009 66 20.0209C66 19.2205 65.3547 18.6006 64.5687 18.6006ZM58.0608 19.5202C56.8732 19.5202 55.9259 18.621 55.9259 17.5004C55.9259 16.3797 56.8938 15.4805 58.0608 15.4805C59.2484 15.4805 60.1958 16.3797 60.1958 17.5004C60.2164 18.621 59.2484 19.5202 58.0608 19.5202ZM60.1958 14.2611C59.5505 13.8013 58.7439 13.5424 57.8789 13.5424C55.6616 13.5424 53.887 15.3238 53.887 17.5038C53.887 19.6837 55.6822 21.4651 57.8789 21.4651C58.7439 21.4651 59.5299 21.1858 60.1958 20.7464V21.2676H62.1694V13.7468H60.1958V14.2611ZM16 21.2608H18.5194V10H16V21.2608ZM24.9895 10H22.5525C22.5113 12.541 21.0216 14.7414 18.8832 15.8211L22.652 21.2608H25.7137L22.2882 16.3218C23.9804 14.6596 24.9483 12.4184 24.9895 10Z" fill="white"/>
</g>
<defs>
<clipPath id="clip0_193_5195">
<rect width="50" height="11.4583" fill="white" transform="translate(16 10)"/>
</clipPath>
</defs>
</svg>
