<svg width="82" height="32" viewBox="0 0 82 32" fill="none" xmlns="http://www.w3.org/2000/svg">
<rect x="0.5" y="0.5" width="81" height="31" stroke="white"/>
<path d="M37.4557 16.0738C37.4557 12.9888 38.8621 10.0625 41.2893 8.15705C36.9113 4.70905 30.5824 5.48031 27.1571 9.85837C23.709 14.2137 24.4803 20.5426 28.8584 23.9906C32.5105 26.8715 37.6598 26.8715 41.312 23.9906C38.8621 22.0852 37.4557 19.1589 37.4557 16.0738Z" stroke="white" stroke-width="2" stroke-miterlimit="10"/>
<path d="M57.5085 16.0755C57.5312 21.6104 53.0851 26.1246 47.5502 26.1473C45.2817 26.17 43.0814 25.3987 41.2893 23.9923C45.6674 20.5216 46.3933 14.17 42.9453 9.81463C42.4689 9.20216 41.9018 8.65774 41.2893 8.15869C45.622 4.73337 51.9282 5.48195 55.3535 9.81463C56.7599 11.6067 57.5312 13.8071 57.5085 16.0755Z" stroke="white" stroke-width="2" stroke-miterlimit="10"/>
</svg>
