<svg width="19" height="20" viewBox="0 0 19 20" fill="none" xmlns="http://www.w3.org/2000/svg">
<path fill-rule="evenodd" clip-rule="evenodd" d="M8.42271 4.70312H14.2253C17.344 4.70312 18.5136 6.23151 18.3336 8.4877C18.0338 12.214 15.7247 14.2664 12.651 14.2664H11.1066C10.6868 14.2664 10.4019 14.543 10.2819 15.2708L9.62222 19.5357C9.57724 19.8123 9.4273 19.9724 9.20239 20.0015H5.55889C5.21403 20.0015 5.09408 19.7541 5.18404 19.2009L7.40313 5.53282C7.49309 4.96513 7.80796 4.70312 8.42271 4.70312Z" fill="#009EE3"/>
<path fill-rule="evenodd" clip-rule="evenodd" d="M4.77868 0H10.5963C12.2456 0 14.1798 0.0582242 15.4843 1.16448C16.3539 1.90684 16.8037 3.08588 16.6988 4.36681C16.3389 8.6754 13.685 11.0917 10.1315 11.0917H7.25266C6.75787 11.0917 6.443 11.4119 6.30805 12.2562L5.51338 17.2052C5.4684 17.5255 5.31846 17.7147 5.06356 17.7438H1.46505C1.06021 17.7438 0.925268 17.4527 1.03023 16.8122L3.60916 0.931587C3.71412 0.305677 4.07397 0 4.77868 0Z" fill="#113984"/>
<path fill-rule="evenodd" clip-rule="evenodd" d="M6.38281 11.7472L7.40239 5.50264C7.49236 4.94951 7.80723 4.6875 8.40698 4.6875H14.2096C15.1692 4.6875 15.9489 4.83306 16.5636 5.09507C15.9789 8.93786 13.4299 11.063 10.0713 11.063H7.22247C6.84762 11.0922 6.56274 11.2814 6.38281 11.7472Z" fill="#172C70"/>
</svg>
