<svg width="62" height="16" viewBox="0 0 62 16" fill="none" xmlns="http://www.w3.org/2000/svg">
<path fill-rule="evenodd" clip-rule="evenodd" d="M8.6419 0.453125C10.6061 0.453125 12.4054 1.4866 12.1655 4.06302C11.8656 7.11979 10.1863 8.80829 7.51736 8.82285H5.19332C4.86346 8.82285 4.69853 9.08486 4.60856 9.63799L4.15875 12.4182C4.08378 12.8403 3.87386 13.0441 3.544 13.0441H1.38489C1.04003 13.0441 0.920081 12.8258 0.99505 12.3454L2.77932 1.2246C2.86928 0.671466 3.07919 0.467681 3.46903 0.467681H8.6419V0.453125ZM5.11835 6.40655H6.88762C7.98217 6.36288 8.71687 5.62052 8.79184 4.29592C8.83682 3.46623 8.26706 2.88398 7.35243 2.88398L5.68812 2.89854L5.11835 6.40655ZM18.043 12.1707C18.2379 11.9961 18.4479 11.9087 18.4179 12.1271L18.3429 12.6365C18.3129 12.8985 18.4179 13.0441 18.6728 13.0441H20.592C20.9218 13.0441 21.0718 12.9131 21.1468 12.4327L22.3313 5.21295C22.3912 4.84905 22.3013 4.67438 22.0164 4.67438H19.9023C19.7073 4.67438 19.6174 4.77627 19.5724 5.06739L19.4974 5.51863C19.4524 5.75152 19.3475 5.79519 19.2425 5.5623C18.8827 4.7326 17.9681 4.3687 16.6936 4.39781C13.7248 4.44148 11.7306 6.62489 11.5057 9.41965C11.3408 11.5885 12.9451 13.2916 15.0443 13.2916C16.5886 13.2916 17.2633 12.8549 18.043 12.1707ZM16.4237 11.0645C15.1492 11.0645 14.2646 10.0747 14.4445 8.86652C14.6244 7.65837 15.8239 6.66856 17.0984 6.66856C18.3729 6.66856 19.2575 7.65837 19.0776 8.86652C18.8977 10.0747 17.6982 11.0645 16.4237 11.0645ZM26.0947 4.65982H24.1455C23.7407 4.65982 23.5758 4.95094 23.7107 5.31484L26.1247 12.1999L23.7407 15.475C23.5458 15.7515 23.6957 15.999 23.9806 15.999H26.1697C26.4995 15.999 26.6495 15.9116 26.8144 15.6933L34.2514 5.3294C34.4763 5.00917 34.3713 4.67438 33.9965 4.67438H31.9273C31.5675 4.67438 31.4325 4.80538 31.2226 5.0965L28.1189 9.46332L26.7394 5.08195C26.6795 4.79083 26.4696 4.65982 26.0947 4.65982Z" fill="#113984"/>
<path fill-rule="evenodd" clip-rule="evenodd" d="M42.0179 0.453125C43.9821 0.453125 45.7813 1.4866 45.5414 4.06302C45.2415 7.11979 43.5622 8.80829 40.8933 8.82285H38.5693C38.2394 8.82285 38.0745 9.08486 37.9845 9.63799L37.5347 12.4182C37.4598 12.8403 37.2498 13.0441 36.92 13.0441H34.7609C34.416 13.0441 34.2961 12.8258 34.371 12.3454L36.1553 1.2246C36.2453 0.671466 36.4552 0.467681 36.845 0.467681H42.0179V0.453125ZM38.4943 6.40655H40.2636C41.3582 6.36288 42.0928 5.62052 42.1678 4.29592C42.2128 3.46623 41.643 2.88398 40.7284 2.88398L39.0641 2.89854L38.4943 6.40655ZM51.419 12.1707C51.6139 11.9961 51.8238 11.9087 51.7939 12.1271L51.7189 12.6365C51.6889 12.8985 51.7939 13.0441 52.0487 13.0441H53.968C54.2978 13.0441 54.4478 12.9131 54.5227 12.4327L55.7072 5.21295C55.7672 4.84905 55.6773 4.67438 55.3924 4.67438H53.2782C53.0833 4.67438 52.9934 4.77627 52.9484 5.06739L52.8734 5.51863C52.8284 5.75152 52.7235 5.79519 52.6185 5.5623C52.2587 4.7326 51.344 4.3687 50.0696 4.39781C47.1158 4.44148 45.1066 6.62489 44.8967 9.41965C44.7318 11.5885 46.3361 13.2916 48.4352 13.2916C49.9646 13.2916 50.6543 12.8549 51.419 12.1707ZM49.8147 11.0645C48.5402 11.0645 47.6556 10.0747 47.8355 8.86652C48.0154 7.65837 49.2149 6.66856 50.4894 6.66856C51.7639 6.66856 52.6485 7.65837 52.4686 8.86652C52.2886 10.0747 51.0891 11.0645 49.8147 11.0645ZM58.676 13.0587H56.4569C56.277 13.0587 56.1571 12.9277 56.187 12.7675L58.1362 0.773358C58.1662 0.613241 58.3312 0.482237 58.5111 0.482237H60.7302C60.9101 0.482237 61.0301 0.613241 61.0001 0.773358L59.0509 12.7675C59.0209 12.9277 58.8559 13.0587 58.676 13.0587Z" fill="#009EE3"/>
</svg>
