<svg width="82" height="32" viewBox="0 0 82 32" fill="none" xmlns="http://www.w3.org/2000/svg">
<rect x="0.5" y="0.5" width="81" height="31" stroke="white"/>
<g clip-path="url(#clip0_193_5190)">
<path fill-rule="evenodd" clip-rule="evenodd" d="M22.3917 10C24.0272 10 25.5253 10.8481 25.3256 12.9623C25.0759 15.4707 23.6776 16.8563 21.4554 16.8683H19.5203C19.2457 16.8683 19.1083 17.0833 19.0334 17.5372L18.6589 19.8186C18.5965 20.165 18.4217 20.3322 18.147 20.3322H16.3368C16.0497 20.3322 15.9498 20.1531 16.0122 19.7589L17.5103 10.6211C17.5853 10.1672 17.76 10 18.0846 10H22.3917ZM19.4579 14.8854H20.9311C21.8424 14.8496 22.4542 14.2404 22.5166 13.1534C22.554 12.4726 22.0796 11.9948 21.3181 11.9948L19.9323 12.0067L19.4579 14.8854ZM30.2195 19.6156C30.3818 19.4722 30.5565 19.4006 30.5316 19.5797L30.4691 19.9978C30.4442 20.2128 30.5316 20.3322 30.7438 20.3322H32.3418C32.6165 20.3322 32.7413 20.2247 32.8037 19.8306L33.79 13.9059C33.8399 13.6073 33.765 13.464 33.5278 13.464H31.7675C31.6052 13.464 31.5303 13.5476 31.4929 13.7865L31.4304 14.1568C31.393 14.3479 31.3056 14.3837 31.2182 14.1926C30.9186 13.5118 30.157 13.2132 29.0959 13.237C26.624 13.2848 24.9635 15.0765 24.7887 17.3819C24.6514 19.1378 25.9748 20.5353 27.7351 20.5353C29.0085 20.5353 29.5828 20.177 30.2195 19.6156ZM28.8836 18.7078C27.8225 18.7078 27.0859 17.8955 27.2357 16.9041C27.3855 15.9127 28.3843 15.1004 29.4454 15.1004C30.5066 15.1004 31.2432 15.9127 31.0934 16.9041C30.9311 17.8955 29.9448 18.7078 28.8836 18.7078ZM36.9361 13.452H35.3131C34.976 13.452 34.8387 13.6909 34.951 13.9896L36.961 19.6395L34.976 22.3151C34.8137 22.542 34.9386 22.7451 35.1758 22.7451H36.9985C37.2731 22.7451 37.398 22.6734 37.5353 22.4943L43.7276 13.9896C43.9148 13.7268 43.8274 13.452 43.5153 13.452H41.7925C41.4929 13.452 41.3805 13.5595 41.2057 13.7984L38.6215 17.3819L37.4729 13.7865C37.4105 13.5595 37.2482 13.452 36.9361 13.452Z" fill="white"/>
<path fill-rule="evenodd" clip-rule="evenodd" d="M50.1947 10C51.8301 10 53.3283 10.8481 53.1285 12.9623C52.8788 15.4707 51.4806 16.8563 49.2584 16.8683H47.3233C47.0486 16.8683 46.9113 17.0833 46.8364 17.5372L46.4619 19.8186C46.3994 20.165 46.2247 20.3322 45.95 20.3322H44.1522C43.8651 20.3322 43.7652 20.1531 43.8276 19.7589L45.3133 10.6331C45.3882 10.1792 45.563 10.0119 45.8876 10.0119H50.1947V10ZM47.2609 14.8854H48.734C49.6454 14.8496 50.2571 14.2404 50.3195 13.1534C50.357 12.4726 49.8826 11.9948 49.121 11.9948L47.7353 12.0067L47.2609 14.8854ZM58.0224 19.6156C58.1847 19.4722 58.3595 19.4006 58.3345 19.5797L58.2721 19.9978C58.2471 20.2128 58.3345 20.3322 58.5467 20.3322H60.1448C60.4194 20.3322 60.5443 20.2247 60.6067 19.8306L61.5929 13.9059C61.6429 13.6073 61.568 13.464 61.3308 13.464H59.5705C59.4082 13.464 59.3333 13.5476 59.2958 13.7865L59.2334 14.1568C59.1959 14.3479 59.1085 14.3837 59.0212 14.1926C58.7215 13.5118 57.96 13.2132 56.8988 13.237C54.4269 13.2848 52.7665 15.0765 52.5917 17.3819C52.4544 19.1617 53.7902 20.5592 55.538 20.5592C56.8114 20.5353 57.3732 20.177 58.0224 19.6156ZM56.6741 18.7078C55.6129 18.7078 54.8763 17.8955 55.0262 16.9041C55.176 15.9127 56.1747 15.1004 57.2359 15.1004C58.2971 15.1004 59.0336 15.9127 58.8838 16.9041C58.734 17.8955 57.7353 18.7078 56.6741 18.7078ZM64.0649 20.3442H62.2172C62.0674 20.3442 61.9675 20.2367 61.9924 20.1053L63.6154 10.2628C63.6404 10.1314 63.7777 10.0239 63.9275 10.0239H65.7752C65.925 10.0239 66.0249 10.1314 65.9999 10.2628L64.377 20.1053C64.352 20.2367 64.2022 20.3442 64.0649 20.3442Z" fill="white"/>
</g>
<defs>
<clipPath id="clip0_193_5190">
<rect width="50" height="12.7451" fill="white" transform="translate(16 10)"/>
</clipPath>
</defs>
</svg>
