<svg width="82" height="32" viewBox="0 0 82 32" fill="none" xmlns="http://www.w3.org/2000/svg">
<rect x="0.5" y="0.5" width="81" height="31" stroke="white"/>
<path fill-rule="evenodd" clip-rule="evenodd" d="M31.1206 23.5563L35.8194 8.32812H40.0061L35.3074 23.5563H31.1206Z" fill="white"/>
<path fill-rule="evenodd" clip-rule="evenodd" d="M29.253 8.32812L25.5181 14.7994C24.5542 16.4914 24.012 17.3522 23.741 18.4209H23.6807C23.741 17.0554 23.5602 15.3931 23.5301 14.4728L23.1084 8.32812H16.0602L16 8.74371C17.8072 8.74371 18.8916 9.63425 19.1627 11.4747L20.5482 23.5563H24.8855L33.6205 8.32812H29.253Z" fill="white"/>
<path fill-rule="evenodd" clip-rule="evenodd" d="M61.7531 23.554L61.6326 21.298H56.4217L55.3675 23.554H50.8193L59.0422 8.35547H64.6145L66.0001 23.554H61.7531ZM61.2711 14.5892C61.2109 13.4612 61.1808 11.9473 61.2711 11.0271H61.2109C60.9699 11.7692 59.8555 14.0549 59.3736 15.1532L57.8073 18.4779H61.482L61.2711 14.5892Z" fill="white"/>
<path fill-rule="evenodd" clip-rule="evenodd" d="M44.3735 24C41.4217 24 39.4639 23.0798 38.0784 22.2486L40.0663 19.2505C41.3314 19.9332 42.2952 20.7347 44.5844 20.7347C45.3073 20.7347 46.0302 20.5566 46.4217 19.8738C46.994 18.8942 46.3013 18.3599 44.6446 17.4397L43.8314 16.9054C41.4217 15.2727 40.3675 13.7291 41.5121 11.0278C42.235 9.30612 44.1627 8 47.3254 8C49.5242 8 51.5723 8.92022 52.747 9.84045L50.4579 12.4824C49.2832 11.5622 48.3193 11.0872 47.2049 11.0872C46.3314 11.0872 45.6386 11.4137 45.4278 11.8887C45.0061 12.7495 45.5784 13.3135 46.8434 14.0853L47.8073 14.679C50.7591 16.5195 51.4519 18.4193 50.6988 20.2004C49.4639 23.2876 46.9639 24 44.3735 24Z" fill="white"/>
</svg>
