<svg width="100" height="100" viewBox="0 0 100 100" fill="none" xmlns="http://www.w3.org/2000/svg">
<g clip-path="url(#clip0_193_4845)">
<path d="M20.6047 43.7305C19.4697 43.7305 18.4104 45.65 18.1834 46.5714C18.1077 46.9553 16.2917 55.3246 16.2161 55.4782C16.1404 55.7853 16.2917 56.0157 16.5944 56.0925C16.7457 56.0925 18.7131 56.0925 18.7131 56.0925C18.7887 56.0925 18.9401 56.0157 18.9401 55.7853C18.9401 55.6318 20.9074 47.3393 20.9074 47.2625C20.9074 47.2625 20.9831 46.8786 21.2857 46.8786C21.3614 46.8786 25.2204 46.8018 25.2204 46.8018C25.2204 46.8018 25.523 46.8018 25.5987 47.1089C25.6744 47.2625 26.204 49.7195 26.204 49.7195C26.204 49.7195 26.204 50.0266 25.977 50.0266C25.8257 50.0266 21.0587 50.0266 21.0587 50.0266C21.0587 50.0266 20.9074 50.0266 20.9074 50.1802C20.9074 50.257 20.3777 52.714 20.3777 52.714C20.3777 52.714 20.3021 53.1747 20.7561 53.2515C20.9074 53.2515 26.8094 53.2515 26.885 53.2515C27.0364 53.2515 27.112 53.4051 27.112 53.4051C27.112 53.4051 27.6417 55.555 27.7174 55.8621C27.793 56.246 28.1714 56.1692 28.1714 56.1692C28.1714 56.1692 29.2307 56.1692 30.29 56.1692C30.6684 56.1692 30.517 55.7086 30.517 55.7086C30.517 55.7086 28.6254 47.2625 28.474 46.6482C28.02 45.1126 26.9607 43.8073 25.8257 43.884C25.2204 43.7305 21.8154 43.7305 20.6047 43.7305Z" fill="#003F4B"/>
<path d="M31.4252 43.7305C31.1982 43.7305 31.0469 43.8073 31.0469 44.1144C31.0469 44.2679 31.0469 52.714 31.0469 53.0212C31.0469 54.8639 32.7872 56.0157 33.8465 56.0157C34.3005 56.0157 40.9592 56.0157 41.4132 56.0157C43.0779 56.0157 43.9859 54.0961 43.9859 53.2515C43.9859 52.2533 43.9859 44.2679 43.9859 44.1144C43.9859 43.884 43.9102 43.7305 43.6832 43.7305H41.6402C41.4132 43.7305 41.3375 43.884 41.3375 44.1144C41.3375 44.2679 41.3375 52.4069 41.3375 52.714C41.3375 53.0212 41.1862 53.1747 40.8835 53.1747H34.2249C33.9222 53.1747 33.8465 53.0212 33.8465 52.714C33.8465 52.4837 33.8465 44.4215 33.8465 44.1144C33.8465 43.9608 33.8465 43.7305 33.5439 43.7305H31.4252Z" fill="#003F4B"/>
<path d="M49.8876 55.7853C49.8876 56.0157 50.0389 56.1692 50.2659 56.1692C50.4929 56.1692 52.0063 56.1692 52.3089 56.1692C52.6116 56.1692 52.6873 56.0157 52.6873 55.7853V46.9553C52.6873 46.8786 52.7629 46.8018 52.8386 46.8018H57.2273C57.4543 46.8018 57.6056 46.5714 57.6056 46.4179V44.1144C57.6056 43.884 57.5299 43.7305 57.2273 43.7305C57.0003 43.7305 45.8016 43.7305 45.4989 43.7305C45.2719 43.7305 45.1206 43.884 45.1206 44.1144C45.1206 44.4215 45.1206 46.1875 45.1206 46.4179C45.1206 46.6482 45.2719 46.8018 45.4989 46.8018C45.6503 46.8018 49.6606 46.8018 49.7363 46.8018C49.8119 46.8018 49.8876 46.8018 49.8876 46.9553C49.8876 47.1089 49.8876 55.555 49.8876 55.7853Z" fill="#003F4B"/>
<path d="M70.7717 55.9415C70.9987 55.9415 71.15 55.8647 71.15 55.5575V53.4076C71.15 53.1773 70.9987 53.0237 70.7717 53.0237C70.6203 53.0237 61.9187 53.0237 61.6917 53.0237C61.4647 53.0237 61.3134 52.8702 61.3134 52.6398C61.3134 52.4095 61.3134 51.7184 61.3134 51.6416C61.3134 51.5649 61.389 51.4881 61.5404 51.4881C61.6917 51.4881 70.5447 51.4881 70.7717 51.4881C71.0743 51.4881 71.15 51.3345 71.15 51.1042C71.15 50.8738 71.15 48.8775 71.15 48.6471C71.15 48.4168 70.9987 48.2632 70.7717 48.2632C70.5447 48.2632 61.616 48.2632 61.4647 48.2632C61.3134 48.2632 61.3134 48.1864 61.3134 48.0329C61.3134 47.9561 61.3134 47.1882 61.3134 47.0347C61.3134 46.8043 61.4647 46.7276 61.6917 46.7276C61.9187 46.7276 70.6203 46.7276 70.7717 46.7276C70.9987 46.7276 71.15 46.574 71.15 46.3436C71.15 46.1901 71.15 44.1937 71.15 44.0402C71.15 43.8098 71.0743 43.6562 70.7717 43.6562C70.5447 43.6562 62.9023 43.6562 61.3134 43.6562C59.8 43.6562 58.5894 45.1919 58.5894 46.8043C58.5894 47.9561 58.5894 51.7184 58.5894 52.6398C58.5894 55.1736 59.9514 55.9415 61.6917 55.9415C62.6753 55.9415 70.5447 55.9415 70.7717 55.9415Z" fill="#003F4B"/>
<path d="M72.6636 43.962C72.6636 43.7317 72.8149 43.5781 73.0419 43.5781C73.2689 43.5781 74.8579 43.5781 75.0849 43.5781C75.3119 43.5781 75.4632 43.7317 75.4632 43.962C75.4632 44.1156 75.4632 52.5617 75.4632 52.792C75.4632 53.0224 75.5389 53.0992 75.8416 53.0992C76.1442 53.0992 83.2569 53.0992 83.4839 53.0992C83.7109 53.0992 83.8622 53.1759 83.8622 53.4063C83.8622 53.6366 83.8622 55.3259 83.8622 55.5562C83.8622 55.7098 83.7866 55.9401 83.4839 55.9401H75.4632C73.7986 55.9401 72.6636 54.558 72.6636 53.0992C72.6636 51.8706 72.6636 44.1924 72.6636 43.962Z" fill="#003F4B"/>
</g>
<defs>
<clipPath id="clip0_193_4845">
<rect width="67.5702" height="12.5156" fill="white" transform="translate(16.2163 43.5781)"/>
</clipPath>
</defs>
</svg>
