<svg width="100" height="100" viewBox="0 0 100 100" fill="none" xmlns="http://www.w3.org/2000/svg">
<g clip-path="url(#clip0_193_4854)">
<path d="M30.0008 51.6C28.9008 52.9 27.4008 53 25.8007 53.3C24.3007 53.5 22.9006 53.4 21.5006 53.2C20.3006 53 18.9006 52.7 18.1005 51.8C17.1005 50.8 17.1005 49.1 17.5005 47.8C18.0005 45.9 19.0006 44.1 20.3006 42.6C20.4006 42.5 20.6006 42.4 20.6006 42.6V47.3C20.6006 48.3 21.9006 49 22.9006 49.1C24.2007 49.3 25.9007 49.1 26.9007 48.2C27.3008 47.9 27.4008 47.4 27.4008 47V42.6C27.4008 42.5 27.5008 42.4 27.7008 42.7C27.9008 42.8 27.9008 42.9 28.0008 43C29.1008 44.3 29.9008 45.6 30.4008 47.2C30.9008 48.5 30.9008 50.4 30.0008 51.6ZM26.5007 54.8C25.8007 55.6 25.3007 56.6 24.8007 57.5H19.5006V57.4C19.7006 56.6 19.6006 55.7 19.4006 54.9C19.2006 54.1 18.9006 53.3 18.5005 52.5C20.6006 53.6 23.3007 53.8 25.8007 53.5C27.0007 53.4 27.7008 53.2 28.5008 52.9C27.9008 53.5 27.1007 54.1 26.5007 54.8ZM16.0005 42V58.1H32.0009V42H16.0005Z" fill="#003F4B"/>
<path d="M39.9012 45.7V48.2H42.5012C43.5013 48.2 44.2013 47.9 44.2013 47C44.2013 45.8 43.4013 45.7 42.3012 45.7H39.9012ZM39.8012 51.3V54.3H42.6012C43.9013 54.3 44.8013 54 44.8013 52.8C44.8013 51.4 43.6013 51.3 42.0012 51.3H39.8012ZM35.1011 58.1V42H43.9013C46.2013 42 48.7014 43.3 48.7014 46C48.7014 47.6 47.9014 48.7 46.9013 49.4C46.9013 49.4 47.0014 49.5 47.0014 49.4C48.7014 50.1 49.4014 51.4 49.4014 53.2C49.4014 56.9 46.1013 58 43.8013 58H35.1011V58.1Z" fill="#003F4B"/>
<path d="M58.3013 50.9C58.3013 49.8 57.5012 49.1 56.5012 49.1C55.4012 49.1 54.5012 49.7 54.5012 50.9H58.3013ZM54.3012 53.4C54.3012 54.2 55.1012 55.4 56.5012 55.4C57.3012 55.4 57.9013 55.2 58.3013 54.5H62.6014C61.8013 57.3 58.9013 58.4 56.4012 58.4C52.8011 58.4 50.1011 55.9 50.1011 52.3C50.1011 48.5 52.8011 46 56.4012 46C60.5013 46 63.0014 49.1 62.9014 53.4H54.3012Z" fill="#003F4B"/>
<path d="M70.3019 57.9992C68.8019 58.1992 67.5019 58.3992 66.6019 58.1992C64.3018 57.7992 63.9018 56.6992 63.9018 53.8992V48.9992H62.3018V46.3992H63.9018V42.6992H68.3019V46.3992H70.4019V48.9992H68.3019V53.1992C68.3019 54.2992 68.5019 54.6992 69.7019 54.6992C69.7019 54.6992 70.0019 54.6992 70.3019 54.5992V57.9992Z" fill="#003F4B"/>
<path d="M78.602 52.8984C77.402 53.8984 74.9019 53.5984 75.102 55.0984C75.202 55.6984 75.802 55.9984 76.702 55.8984C78.302 55.6984 78.802 53.8984 78.602 52.8984ZM79.002 58.0984L78.602 56.9984C77.402 58.1984 76.502 58.4984 74.8019 58.4984C72.7019 58.4984 70.9019 57.3984 70.9019 55.0984C70.9019 50.2984 78.502 52.0984 78.502 50.1984C78.502 49.1984 77.502 49.1984 77.102 49.1984C76.502 49.1984 75.602 49.3984 75.402 50.5984H71.4019C71.4019 47.9984 72.8019 46.3984 77.202 46.3984C82.4021 46.3984 82.9021 48.8984 82.9021 51.2984V56.5984C82.9021 57.2984 82.9021 57.6984 83.4021 58.1984L83.5021 58.2984H79.002V58.0984Z" fill="#003F4B"/>
</g>
<defs>
<clipPath id="clip0_193_4854">
<rect width="67.6016" height="16.5" fill="white" transform="translate(16.0005 42)"/>
</clipPath>
</defs>
</svg>
