<svg width="100" height="100" viewBox="0 0 100 100" fill="none" xmlns="http://www.w3.org/2000/svg">
<g clip-path="url(#clip0_193_4863)">
<path d="M16.0007 49.9C16.0007 46.6 18.6008 44 21.9009 44C25.1009 44 27.801 46.6 27.801 49.9C27.801 53.2 25.2009 55.8 21.9009 55.8C18.6008 55.8 16.0007 53.1 16.0007 49.9Z" fill="#003F4B"/>
<path d="M48.1015 48.6016H45.0014C44.3014 48.6016 43.6014 49.0016 43.4013 49.7016C43.2013 50.2016 42.7013 51.8016 42.5013 52.2016C42.3013 52.6016 42.7013 52.8016 43.2013 52.8016H46.0014C46.8014 52.8016 47.4014 52.2016 47.6014 51.8016C47.8015 51.4016 48.3015 49.7016 48.5015 49.2016C48.6015 48.9016 48.4015 48.6016 48.1015 48.6016ZM46.2014 51.5016H44.2014L44.7014 49.9016H46.7014L46.2014 51.5016Z" fill="#003F4B"/>
<path d="M61.4017 45.7L57.3016 48.8L55.8016 45.7H51.7015L51.4015 46.5V46.4C51.1015 46 50.2015 45.7 49.8015 45.7H44.9014C43.9013 45.7 43.0013 46 42.4013 46.2L43.1013 44H36.0012C33.4011 44 31.6011 45.8 31.101 47.1C30.801 47.9 30.101 49.9 29.301 52.3C28.501 54.8 30.701 55.7 31.8011 55.7H39.1012L39.4012 54.9C39.9012 55.5 40.8013 55.7 41.2013 55.7H45.5014C45.9014 55.7 47.6014 55.7 48.3014 55.1L48.1014 55.7H53.0016L53.9016 53L55.2016 55.7L58.4017 53L57.5017 55.7H76.4021L78.4021 49.9H81.8022L83.2022 45.7H61.4017ZM38.2012 54.4H31.8011C31.301 54.4 30.501 53.8 30.601 53C30.701 52.3 32.3011 48 32.7011 47.2C33.0011 46.4 34.6011 45.4 35.4011 45.4H41.2013L40.6013 47H36.0012C35.3011 47 34.5011 47.6 34.2011 48.3C34.1011 49 33.1011 51.9 33.0011 52.3C32.9011 52.7 33.0011 52.9 33.6011 52.9H38.8012L38.2012 54.4ZM39.2012 51.5H34.7011C34.7011 51.5 35.4011 49.4 35.5011 49C35.7011 48.4 36.0012 48.4 36.6012 48.4H40.2013L39.2012 51.5ZM46.3014 54.4H43.2013H41.4013C41.0013 54.4 39.9012 54 40.2013 52.8C40.5013 51.8 41.2013 49.6 41.8013 48.6C42.4013 47.5 43.7013 47 44.2013 47H49.7015C50.3015 47 51.0015 47.6 50.6015 48.9C50.2015 50.1 49.5015 52.2 49.3015 52.6C49.1015 53.2 47.8014 54.4 46.3014 54.4ZM59.7017 54.4L61.4017 49.2L56.1016 53.4L54.1016 49.2L52.3015 54.4H50.3015L52.8015 47H54.9016L56.8016 50.8L62.0018 47.1H64.2018L61.8018 54.5H59.7017V54.4ZM72.202 54.4H63.2018L65.6018 47H71.102L70.602 48.6H67.1019L66.7019 49.8H70.1019L69.6019 51.5H66.2019L65.7018 52.8H72.702L72.202 54.4ZM73.202 51.4H71.202L71.702 49.8H73.702L73.202 51.4ZM81.1022 48.6H77.7021L75.7021 54.4H73.602L75.5021 48.6H72.102L72.602 47H81.5022L81.1022 48.6Z" fill="#003F4B"/>
</g>
<defs>
<clipPath id="clip0_193_4863">
<rect width="67.6016" height="11.8" fill="white" transform="translate(16.0007 44)"/>
</clipPath>
</defs>
</svg>
