<svg width="100" height="100" viewBox="0 0 100 100" fill="none" xmlns="http://www.w3.org/2000/svg">
<g clip-path="url(#clip0_193_4872)">
<path d="M28.6013 43.2C28.6013 43.1 28.6013 43.1 28.6013 43H18.701C18.301 43.1 17.901 43.2 17.601 43.3C16.701 43.9 16.201 44.6 16.001 45.7C16.001 45.8 16.001 45.8 16.001 45.9V53.4V53.5C16.201 55 17.501 56.1 19.001 56.2C21.2011 56.2 23.5012 56.2 25.7012 56.2C26.3012 56.2 26.8012 56.1 27.3012 55.7C28.2013 55.1 28.7013 54.2 28.7013 53C28.7013 49.7 28.6013 46.5 28.6013 43.2ZM27.8013 47.3C26.9012 47.4 25.9012 47.5 25.0012 47.6C25.0012 47.6 24.9012 47.6 24.9012 47.7C24.9012 47.7 24.9012 47.8 25.0012 47.8C25.0012 47.8 25.0012 47.9 25.0012 48C24.9012 47.9 24.8012 47.8 24.7012 47.8C24.3012 47.7 24.0012 47.7 23.7012 47.9C23.2011 48.2 22.8011 48.2 22.4011 48.1C22.3011 48.1 22.2011 48.1 22.2011 48.1C22.2011 48.1 22.1011 48.1 22.1011 48.2C22.1011 48.2 22.1011 48.3 22.2011 48.3C22.7011 48.4 23.2011 48.6 23.6012 48.2C24.0012 47.9 24.4012 47.9 24.9012 48.1C24.9012 48.1 25.0012 48.2 25.1012 48.3C25.1012 48.3 25.2012 48.4 25.2012 48.5L25.1012 48.6C24.9012 48.6 24.7012 48.6 24.5012 48.6C24.4012 48.6 24.4012 48.6 24.3012 48.6C24.6012 48.6 24.8012 48.6 25.1012 48.6C25.4012 48.6 25.4012 48.6 25.4012 48.3C26.2012 49.2 26.9012 50 27.6012 50.9C25.0012 52.2 22.5011 53.6 19.9011 54.9C20.0011 54.7 20.0011 54.4 20.1011 54.1C20.3011 53 20.5011 51.9 20.7011 50.8C20.7011 50.6 20.7011 50.6 21.0011 50.6C21.1011 50.6 21.2011 50.6 21.3011 50.7C21.6011 50.7 21.8011 50.9 22.0011 51.1C22.1011 51.3 22.2011 51.3 22.4011 51.3C22.7011 51.3 23.0011 51.2 23.1011 50.9C23.1011 50.9 23.1011 50.8 23.1011 50.7H23.0011C22.9011 50.7 22.8011 50.7 22.7011 50.7C22.4011 50.7 22.4011 50.7 22.3011 50.5C22.3011 50.8 22.3011 50.9 22.6011 50.9C22.8011 50.9 22.9011 50.9 23.1011 50.9C23.1011 50.9 23.1011 51 23.0011 51C22.9011 51.1 22.6011 51.2 22.4011 51.2C22.2011 51.2 22.1011 51.2 22.0011 51C21.8011 50.7 21.5011 50.6 21.2011 50.6C19.9011 50.3 18.601 50 17.401 49.5C17.201 49.4 16.901 49.3 16.701 49.1C16.501 49 16.501 48.7 16.701 48.6C17.001 48.4 17.401 48.2 17.701 48.2C18.701 48 19.7011 47.8 20.7011 47.6C20.8011 47.6 20.8011 47.6 20.9011 47.6C21.3011 47.6 21.2011 47.6 21.3011 47.2C21.4011 46.5 21.6011 45.8 21.7011 45.1C21.7011 44.9 21.8011 44.7 21.8011 44.6C21.8011 44.5 21.8011 44.4 21.9011 44.3C22.1011 44.5 22.2011 44.6 22.3011 44.8C23.0011 45.6 23.6012 46.4 24.3012 47.2C24.4012 47.3 24.5012 47.3 24.6012 47.3C25.1012 47.3 25.7012 47.2 26.2012 47.2C26.7012 47.2 27.2012 47.1 27.7012 47.1C27.8013 47.1 27.9013 47.1 28.0013 47.1C28.1013 47.2 28.0013 47.3 27.8013 47.3Z" fill="#003F4B"/>
<path d="M70.3022 53.8984C70.2022 53.8984 70.2022 53.8984 70.1022 53.8984H50.1018H30.0013C29.8013 53.8984 29.8013 53.8984 29.7013 54.1984C29.6013 54.6984 29.5013 55.1984 29.2013 55.5984C29.0013 55.8984 28.7013 56.3984 28.3013 56.3984C28.6013 56.3984 28.8013 56.3984 29.1013 56.3984C30.3013 56.3984 31.5013 56.3984 32.8014 56.3984C37.6015 56.3984 42.4016 56.3984 47.2017 56.3984C51.2018 56.3984 55.2019 56.3984 59.202 56.3984C60.602 56.3984 61.9021 56.3984 63.3021 56.3984C65.6021 56.3984 67.9022 56.3984 70.2022 56.3984H70.3022C70.4022 56.3984 70.5023 56.2984 70.5023 56.1984C70.5023 55.4984 70.5023 54.7984 70.5023 54.0984C70.4022 53.8984 70.4022 53.8984 70.3022 53.8984Z" fill="#003F4B"/>
<path d="M73.1023 52.1992C73.1023 49.8992 73.1023 47.6992 73.1023 45.3992C73.1023 45.1992 73.1023 45.1992 72.9023 45.1992C72.2023 45.1992 71.4023 45.1992 70.7023 45.1992C70.5023 45.1992 70.5023 45.1992 70.5023 45.3992C70.5023 46.4992 70.5023 47.5992 70.5023 48.6992V48.8992C70.4023 48.7992 70.4023 48.7992 70.3023 48.6992C69.3023 47.5992 68.4022 46.3992 67.4022 45.2992C67.3022 45.1992 67.2022 45.1992 67.2022 45.1992C66.4022 45.1992 65.7022 45.1992 64.9022 45.1992C64.8022 45.1992 64.7021 45.1992 64.7021 45.3992C64.7021 47.6992 64.7021 49.9992 64.7021 52.1992C64.7021 52.3992 64.7021 52.3992 64.9022 52.3992C65.6022 52.3992 66.4022 52.3992 67.1022 52.3992C67.3022 52.3992 67.3022 52.3992 67.3022 52.1992C67.3022 51.0992 67.3022 49.9992 67.3022 48.8992V48.6992C67.3022 48.6992 67.3022 48.6992 67.4022 48.6992L67.5022 48.7992C68.5022 49.9992 69.4023 51.0992 70.4023 52.2992C70.5023 52.3992 70.6023 52.3992 70.7023 52.3992C71.5023 52.3992 72.2023 52.3992 73.0023 52.3992C73.0023 52.3992 73.1023 52.3992 73.1023 52.1992Z" fill="#003F4B"/>
<path d="M82.8025 51.2003C83.7026 50.2003 83.7026 48.2003 83.3026 47.2003C82.9025 46.3003 82.2025 45.7003 81.3025 45.4003C79.9025 44.9003 78.5024 44.9003 77.1024 45.3003C76.5024 45.5003 76.0024 45.7003 75.5024 46.2003C74.7023 46.9003 74.4023 47.8003 74.4023 48.9003C74.4023 50.4003 75.2024 51.6003 76.5024 52.2003C77.3024 52.5003 78.2024 52.6003 79.1025 52.6003C79.7025 52.6003 80.3025 52.6003 80.9025 52.4003C81.6025 52.1003 82.3025 51.7003 82.8025 51.2003ZM80.6025 49.8003C80.5025 50.2003 80.3025 50.4003 79.9025 50.6003C79.3025 50.9003 78.6024 50.9003 78.0024 50.6003C77.4024 50.3003 77.2024 49.8003 77.2024 49.2003C77.2024 49.1003 77.2024 49.0003 77.2024 48.9003C77.2024 48.7003 77.2024 48.5003 77.3024 48.4003C77.4024 47.6003 77.9024 47.1003 78.7024 47.0003C79.0025 47.0003 79.3025 47.0003 79.6025 47.1003C80.2025 47.2003 80.6025 47.6003 80.7025 48.2003C80.8025 48.7003 80.8025 49.2003 80.6025 49.8003Z" fill="#003F4B"/>
<path d="M47.6017 52.2017C48.2017 52.4017 48.8017 52.5017 49.5018 52.5017C50.3018 52.5017 51.1018 52.5017 51.8018 52.3017C52.5018 52.1017 53.1018 51.8017 53.5019 51.2017C54.1019 50.3017 53.9019 49.2017 53.1018 48.6017C52.8018 48.4017 52.4018 48.2017 52.1018 48.1017C51.4018 47.9017 50.6018 47.7017 49.8018 47.6017C49.6018 47.5017 49.3018 47.5017 49.1018 47.4017C49.0017 47.4017 48.9017 47.2017 48.8017 47.1017C48.8017 46.9017 48.9017 46.8017 49.0018 46.7017C49.1018 46.7017 49.2018 46.6017 49.2018 46.6017C49.4018 46.6017 49.7018 46.6017 49.9018 46.6017C50.4018 46.6017 50.7018 46.9017 50.9018 47.4017C50.9018 47.5017 51.0018 47.5017 51.1018 47.5017C51.7018 47.5017 52.4018 47.4017 53.0018 47.4017C53.2018 47.4017 53.4019 47.4017 53.6019 47.4017C53.6019 47.0017 53.4019 46.6017 53.2018 46.3017C52.8018 45.8017 52.3018 45.5017 51.7018 45.4017C50.5018 45.0017 49.2018 45.0017 48.0017 45.2017C47.5017 45.3017 47.0017 45.6017 46.6017 46.0017C46.0017 46.7017 46.0017 47.6017 46.5017 48.3017C46.7017 48.5017 46.9017 48.7017 47.2017 48.8017C47.8017 49.2017 48.5017 49.3017 49.2018 49.5017C49.6018 49.6017 50.1018 49.7017 50.5018 49.8017C50.8018 49.9017 51.0018 50.0017 51.0018 50.3017C51.0018 50.5017 50.8018 50.8017 50.5018 50.9017C50.3018 51.0017 49.9018 51.0017 49.6018 51.0017C49.0017 50.9017 48.6017 50.6017 48.5017 50.0017C48.5017 49.9017 48.4017 49.9017 48.3017 49.9017C47.5017 49.9017 46.7017 50.0017 45.9017 50.0017C45.8017 50.0017 45.7017 50.0017 45.8017 50.2017C46.0017 51.2017 46.6017 51.9017 47.6017 52.2017Z" fill="#003F4B"/>
<path d="M35.9014 52.4016C35.9014 52.4016 36.0014 52.4016 35.9014 52.4016C36.9014 52.4016 37.8014 52.4016 38.7014 52.4016C38.8014 52.4016 38.8014 52.3016 38.9014 52.3016C38.9014 52.0016 39.0014 51.7016 39.1014 51.4016C39.1014 51.3016 39.2014 51.2016 39.3014 51.2016C40.2015 51.2016 41.1015 51.2016 41.9015 51.2016C42.0015 51.2016 42.1015 51.3016 42.1015 51.4016C42.2015 51.7016 42.3015 52.0016 42.4015 52.2016C42.4015 52.3016 42.5015 52.4016 42.7015 52.4016C43.6015 52.4016 44.4016 52.4016 45.3016 52.4016C45.4016 52.4016 45.4016 52.4016 45.5016 52.4016C45.5016 52.3016 45.5016 52.3016 45.4016 52.2016C45.3016 52.0016 45.2016 51.7016 45.1016 51.5016C44.2016 49.4016 43.2015 47.4016 42.3015 45.3016C42.2015 45.2016 42.2015 45.1016 42.0015 45.1016C41.1015 45.1016 40.2015 45.1016 39.3014 45.1016C39.2014 45.1016 39.1014 45.1016 39.1014 45.3016C38.1014 47.6016 37.0014 49.9016 35.9014 52.2016C35.9014 52.3016 35.9014 52.3016 35.9014 52.4016ZM40.7015 47.3016C41.0015 48.0016 41.3015 48.7016 41.6015 49.5016H39.9015C40.1015 48.8016 40.4015 48.1016 40.7015 47.3016Z" fill="#003F4B"/>
<path d="M57.002 52.4016C57.102 52.4016 57.102 52.4016 57.202 52.3016C57.302 52.0016 57.402 51.7016 57.502 51.4016C57.502 51.3016 57.602 51.2016 57.702 51.2016C58.602 51.2016 59.502 51.2016 60.302 51.2016C60.402 51.2016 60.502 51.2016 60.502 51.3016C60.6021 51.6016 60.7021 51.9016 60.8021 52.2016C60.8021 52.3016 60.9021 52.4016 61.1021 52.4016C62.0021 52.4016 62.8021 52.4016 63.7021 52.4016C63.8021 52.4016 63.8021 52.4016 63.9021 52.4016C63.9021 52.3016 63.9021 52.3016 63.8021 52.2016C62.7021 49.9016 61.7021 47.6016 60.6021 45.3016C60.502 45.2016 60.502 45.1016 60.302 45.1016C59.402 45.1016 58.602 45.1016 57.702 45.1016C57.502 45.1016 57.502 45.2016 57.402 45.3016C56.402 47.5016 55.4019 49.7016 54.4019 51.8016C54.3019 52.0016 54.3019 52.1016 54.2019 52.3016C54.3019 52.3016 54.3019 52.3016 54.3019 52.3016C55.2019 52.4016 56.1019 52.4016 57.002 52.4016ZM59.002 47.3016C59.302 48.0016 59.602 48.8016 59.902 49.5016H58.202C58.402 48.8016 58.702 48.1016 59.002 47.3016Z" fill="#003F4B"/>
<path d="M30.0014 52.3992C30.8014 52.3992 31.6015 52.3992 32.4015 52.3992C32.6015 52.3992 32.6015 52.2992 32.6015 52.1992C32.6015 51.3992 32.6015 50.5992 32.6015 49.7992C32.6015 49.4992 32.6015 49.4992 32.8015 49.4992C33.8015 49.4992 34.7015 49.4992 35.7016 49.4992C35.8016 49.4992 35.9016 49.4992 35.9016 49.2992C35.9016 48.8992 35.9016 48.4992 35.9016 48.1992C35.9016 47.9992 35.9016 47.9992 35.7016 47.9992H32.8015C32.5015 47.9992 32.5015 47.9992 32.5015 47.6992C32.5015 47.4992 32.5015 47.2992 32.5015 47.0992C32.5015 46.7992 32.5015 46.7992 32.7015 46.7992C33.9015 46.7992 35.0015 46.7992 36.2016 46.7992C36.4016 46.7992 36.4016 46.6992 36.4016 46.5992C36.4016 46.1992 36.4016 45.7992 36.4016 45.3992C36.4016 45.1992 36.4016 45.1992 36.2016 45.1992C34.1015 45.1992 32.0015 45.1992 29.9014 45.1992C29.7014 45.1992 29.7014 45.1992 29.7014 45.3992C29.7014 46.4992 29.7014 47.6992 29.7014 48.7992C29.7014 49.8992 29.7014 51.0992 29.7014 52.1992C29.8014 52.3992 29.8014 52.3992 30.0014 52.3992Z" fill="#003F4B"/>
<path d="M77.7024 53.6992C76.9024 53.6992 76.5023 54.0992 76.4023 54.8992C76.4023 55.6992 76.8023 56.1992 77.6024 56.1992C78.3024 56.1992 78.8024 55.7992 78.8024 54.9992C78.8024 54.1992 78.4024 53.6992 77.7024 53.6992ZM78.0024 55.2992C78.0024 55.4992 77.8024 55.5992 77.7024 55.5992C77.5024 55.5992 77.4024 55.4992 77.3024 55.3992C77.3024 55.2992 77.3024 55.1992 77.2024 54.9992C77.2024 54.8992 77.2024 54.7992 77.3024 54.6992C77.4024 54.4992 77.5024 54.3992 77.7024 54.3992C77.9024 54.3992 78.0024 54.4992 78.1024 54.6992C78.0024 54.8992 78.0024 55.0992 78.0024 55.2992Z" fill="#003F4B"/>
<path d="M74.9024 53.6992C74.1024 53.6992 73.7024 54.0992 73.7024 54.8992C73.7024 55.6992 74.1024 56.1992 74.9024 56.1992C75.7024 56.1992 76.1024 55.6992 76.1024 54.8992C76.1024 54.1992 75.7024 53.6992 74.9024 53.6992ZM75.3024 55.2992C75.3024 55.4992 75.1024 55.5992 74.9024 55.5992C74.7024 55.5992 74.5024 55.4992 74.5024 55.2992C74.5024 55.0992 74.5024 54.8992 74.5024 54.7992C74.5024 54.5992 74.7024 54.4992 74.9024 54.4992C75.1024 54.4992 75.3024 54.5992 75.3024 54.7992C75.3024 54.8992 75.3024 55.0992 75.3024 55.2992Z" fill="#003F4B"/>
<path d="M83.1024 54.7C82.9024 54.6 82.9024 54.6 82.8024 54.6C82.7024 54.6 82.7024 54.6 82.6024 54.6C82.5024 54.6 82.4024 54.5 82.3024 54.5L82.2024 54.4C82.2024 54.4 82.2024 54.3 82.3024 54.3C82.4024 54.2 82.6024 54.3 82.6024 54.5C82.6024 54.5 82.7024 54.5 82.7024 54.6C82.9024 54.6 83.0024 54.6 83.2024 54.6C83.3024 54.6 83.3024 54.5 83.3024 54.4C83.3024 54.2 83.2024 54 83.0024 53.9C82.7024 53.7 81.9024 53.7 81.6024 53.9C81.2024 54.2 81.2024 54.7 81.6024 55C81.8024 55.1 81.9024 55.2 82.1024 55.2C82.2024 55.2 82.3024 55.3 82.4024 55.3C82.5024 55.3 82.5024 55.4 82.5024 55.5C82.5024 55.6 82.4024 55.6 82.4024 55.6C82.2024 55.7 82.1024 55.6 82.0024 55.4L81.9024 55.3C81.7024 55.3 81.5024 55.3 81.3024 55.3C81.2024 55.3 81.2024 55.3 81.2024 55.4C81.2024 55.6 81.3024 55.9 81.5024 56C81.8024 56.3 82.6024 56.2 83.0024 56C83.7025 55.6 83.6024 55 83.1024 54.7Z" fill="#003F4B"/>
<path d="M73.3023 53.8008C73.0023 53.8008 72.7023 53.8008 72.4023 53.8008C72.2023 53.8008 72.0023 53.8008 71.8023 53.8008C71.3022 53.8008 71.3022 53.8008 71.3022 54.3008C71.3022 54.4008 71.3022 54.5008 71.5023 54.5008C71.6023 54.5008 71.7023 54.5008 71.8023 54.5008C72.0023 54.5008 72.0023 54.6008 72.0023 54.7008C72.0023 55.1008 72.0023 55.6008 72.0023 56.0008C72.0023 56.2008 72.1023 56.2008 72.2023 56.2008C72.3023 56.2008 72.5023 56.2008 72.6023 56.2008C72.7023 56.2008 72.8023 56.2008 72.8023 56.0008C72.8023 55.6008 72.8023 55.1008 72.8023 54.7008C72.8023 54.5008 72.8023 54.5008 73.0023 54.5008C73.5023 54.5008 73.5023 54.5008 73.5023 54.0008C73.5023 53.8008 73.4023 53.8008 73.3023 53.8008Z" fill="#003F4B"/>
<path d="M81.0024 55.5008C80.8024 55.5008 80.5024 55.5008 80.3024 55.5008C80.2024 55.5008 80.1024 55.5008 80.1024 55.3008C80.1024 54.9008 80.1024 54.4008 80.1024 54.0008C80.1024 53.9008 80.1024 53.8008 79.9024 53.8008C79.7024 53.8008 79.6024 53.8008 79.4024 53.8008C79.3024 53.8008 79.2024 53.8008 79.2024 54.0008C79.2024 54.7008 79.2024 55.4008 79.2024 56.1008C79.2024 56.2008 79.2024 56.3008 79.4024 56.3008C79.7024 56.3008 79.9024 56.3008 80.2024 56.3008C80.3024 56.3008 80.5024 56.3008 80.6024 56.3008C81.1024 56.3008 81.1024 56.3008 81.1024 55.8008C81.1024 55.5008 81.1024 55.5008 81.0024 55.5008Z" fill="#003F4B"/>
<path d="M21.0011 48.3008C20.801 48.4008 20.501 48.4008 20.301 48.6008C20.201 48.6008 20.101 48.7008 20.001 48.8008C19.901 48.9008 19.901 49.1008 20.001 49.2008C20.001 49.3008 20.101 49.4008 20.301 49.5008C20.501 49.6008 20.701 49.7008 20.901 49.7008C20.901 49.2008 21.0011 48.8008 21.0011 48.3008C21.1011 48.3008 21.0011 48.3008 21.0011 48.3008Z" fill="#003F4B"/>
<path d="M24.101 50.4016C24.6011 50.4016 25.1011 50.1016 25.4011 49.7016C25.4011 49.7016 25.4011 49.6016 25.4011 49.5016C25.4011 49.5016 25.3011 49.4016 25.2011 49.4016C25.0011 49.4016 24.8011 49.4016 24.5011 49.4016C24.101 49.4016 24.001 49.3016 24.001 48.9016C24.001 48.8016 24.101 48.7016 24.101 48.6016C24.201 48.7016 24.101 48.7016 24.101 48.8016C24.001 49.0016 24.001 49.3016 24.201 49.5016C24.201 49.6016 24.301 49.6016 24.4011 49.6016C24.7011 49.6016 24.9011 49.6016 25.2011 49.6016C25.3011 49.6016 25.3011 49.6016 25.4011 49.6016C25.3011 49.7016 25.3011 49.8016 25.2011 49.9016C25.0011 50.1016 24.7011 50.2016 24.4011 50.3016C24.101 50.4016 23.901 50.3016 23.601 50.1016C23.601 50.0016 23.501 49.9016 23.401 49.8016C23.401 49.8016 23.301 49.8016 23.301 49.7016C23.401 50.0016 23.601 50.2016 23.801 50.3016C23.901 50.4016 24.001 50.4016 24.101 50.4016Z" fill="#003F4B"/>
<path d="M20.9011 49.7985C20.9011 49.8985 20.9011 49.8985 21.0011 49.8985C21.1011 49.8985 21.2011 49.8985 21.3011 49.8985C21.5011 49.8985 21.8011 49.8985 22.0011 49.7985C22.3012 49.4985 22.8012 49.6985 23.0012 49.9985C23.0012 49.8985 23.0012 49.8985 23.0012 49.7985C22.8012 49.5985 22.3012 49.3985 22.0011 49.5985C21.9011 49.7985 21.7011 49.8985 21.5011 49.8985C21.3011 49.8985 21.1011 49.7985 20.9011 49.7985Z" fill="#003F4B"/>
</g>
<defs>
<clipPath id="clip0_193_4872">
<rect width="67.6016" height="13.3" fill="white" transform="translate(16.001 43)"/>
</clipPath>
</defs>
</svg>
