<svg width="100" height="100" viewBox="0 0 100 100" fill="none" xmlns="http://www.w3.org/2000/svg">
<g clip-path="url(#clip0_193_4895)">
<path d="M17.6013 45.2C17.7013 44.9 17.9013 44.7 18.2013 44.6L24.1014 43H16.6012C16.3012 43 16.0012 43.3 16.0012 43.6V51.1L17.6013 45.2Z" fill="#003F4B"/>
<path d="M25.3013 43.1L29.9014 47.7L30.0014 47.8V43.6C30.0014 43.3 29.7014 43 29.4014 43H25.1013C25.2013 43 25.2013 43.1 25.3013 43.1Z" fill="#003F4B"/>
<path d="M20.7013 56.8992L16.1012 52.2992L16.0012 52.1992V56.4992C16.0012 56.6992 16.3012 56.9992 16.6012 56.9992H20.9013C20.8013 56.9992 20.8013 56.8992 20.7013 56.8992Z" fill="#003F4B"/>
<path d="M28.4015 54.7984C28.3015 55.0984 28.1015 55.2984 27.8015 55.3984L21.9014 56.9984H29.4015C29.7015 56.9984 30.0016 56.6984 30.0016 56.3984V48.8984L28.4015 54.7984Z" fill="#003F4B"/>
<path d="M31.7017 43H40.6019V46.2H37.2018V47.7H40.6019V50.9H37.2018V57H31.7017V43Z" fill="#003F4B"/>
<path d="M41.5017 43H50.3019V46.2H47.0018V47.7H50.3019V50.9H47.0018V53.8H50.3019V57H41.5017V43Z" fill="#003F4B"/>
<path d="M51.4021 43H60.2023C62.8024 43 63.7024 43.9 63.7024 46.4C63.7024 48.3 63.0024 49.2 61.5023 49.6C63.2024 50.1 63.7024 50.8 63.7024 52.9V57H58.2023V52.7C58.2023 51.5 58.0022 51.2 57.1022 51.2C57.1022 51.2 57.0022 51.2 56.9022 51.2V57H51.4021V43ZM56.9022 48.1C58.0023 48.1 58.3023 47.9 58.3023 47.1C58.3023 46.7 58.1023 46.3 57.9022 46.2C57.8022 46.1 57.6022 46.1 57.2022 46.1H56.9022V48.1Z" fill="#003F4B"/>
<path d="M64.5024 43H69.7026L70.1026 47.1C70.4026 50 70.4026 50.9 70.4026 52H70.7026C70.7026 51.1 70.8026 49.1 71.0026 47.1L71.4026 43.1H76.6027L73.9027 57.1H67.0025L64.5024 43Z" fill="#003F4B"/>
<path d="M83.6028 43H77.7026V57H83.6028V43Z" fill="#003F4B"/>
</g>
<defs>
<clipPath id="clip0_193_4895">
<rect width="67.6016" height="14" fill="white" transform="translate(16.0012 43)"/>
</clipPath>
</defs>
</svg>
