<svg width="100" height="100" viewBox="0 0 100 100" fill="none" xmlns="http://www.w3.org/2000/svg">
<g clip-path="url(#clip0_193_4909)">
<path d="M69.9027 52.2C70.2027 51.7 70.4027 51.7 71.1027 51.7H79.903L83.603 45.7H70.1027C69.2027 45.7 68.2027 45.9 67.3027 46.3L67.7027 45.7H58.9025L58.3024 46.7C57.7024 46.1 57.0024 45.7 55.8024 45.7H49.0022C48.1022 45.7 47.1022 45.9 46.2022 46.3L46.6022 45.7H39.302H37.902H33.7019C34.0019 45.2 34.4019 44.9 35.0019 44.9H38.402H39.202H39.802H47.1022L50.0023 40H41.4021H34.0019C29.0018 40 26.9017 42.4 25.8017 44.3L24.8017 45.8H21.8016L18.6015 51H21.4016L16.0015 59.9H24.8017L30.2018 51H34.6019L29.1018 59.9H38.002L39.102 58.1C39.702 59.1 41.102 59.9 42.5021 59.9H48.3022C49.2022 59.9 50.0023 59.7 50.7023 59.5L50.5023 59.9H59.2025L60.3025 58.1C60.9025 59.1 62.3025 59.9 63.7026 59.9H75.0028L78.4029 54.4H69.8027C68.7027 54.4 68.8027 54.2 68.9027 54C68.7027 54.1 69.9027 52.2 69.9027 52.2ZM46.2022 44H40.302L42.2021 41H48.1022L46.2022 44ZM29.4018 50.1L24.0017 59H18.0015L23.4016 50.1H20.6016L22.6016 46.7H25.6017L26.9017 44.7C28.0017 42.9 29.8018 41 34.0019 41H40.802L38.902 44H34.9019C32.9019 44 32.2018 45.6 31.5018 46.7H37.102L35.0019 50.1H29.4018ZM37.102 59H31.0018L38.502 46.7H44.4021L37.102 59ZM58.3024 59H52.1023L52.8023 57.2C51.4023 58.1 50.5023 59 48.1022 59H42.3021C40.802 59 39.302 57.5 40.002 56.5L44.5021 49C45.3021 47.8 47.2022 46.8 48.8022 46.8H55.6024C57.2024 46.8 57.8024 48.1 58.2024 48.9L59.6025 46.8H65.6026L58.3024 59ZM67.6027 53.6C66.8026 54.9 67.8027 55.3 69.3027 55.3H76.3029L74.1028 59H63.6026C62.1025 59 60.6025 57.5 61.3025 56.5L65.8026 49C66.6026 47.8 68.5027 46.8 70.1027 46.8H81.703L79.2029 50.9C78.6029 50.9 71.5028 50.9 71.2027 50.9C70.1027 50.9 69.4027 51 68.7027 52.1C68.7027 52 67.6027 53.6 67.6027 53.6Z" fill="#003F4B"/>
<path d="M55.1025 48.6016H53.4024C52.2024 48.6016 50.8024 48.8016 50.1023 49.9016L47.1023 54.7016C46.4023 55.9016 47.7023 57.1016 49.3023 57.1016H50.6023C52.0024 57.1016 53.3024 56.6016 54.0024 55.5016L57.1025 50.6016C57.8025 49.2016 56.8025 48.6016 55.1025 48.6016ZM55.7025 50.7016L52.8024 55.2016C52.4024 55.9016 51.5024 56.2016 50.6023 56.2016H49.3023C48.6023 56.2016 48.0023 55.6016 48.3023 55.1016L51.3024 50.3016C51.7024 49.7016 52.4024 49.5016 53.4024 49.5016H54.7024C55.8025 49.5016 56.2025 49.9016 55.7025 50.7016Z" fill="#003F4B"/>
</g>
<defs>
<clipPath id="clip0_193_4909">
<rect width="67.6016" height="19.9" fill="white" transform="translate(16.0015 40)"/>
</clipPath>
</defs>
</svg>
