<svg width="100" height="100" viewBox="0 0 100 100" fill="none" xmlns="http://www.w3.org/2000/svg">
<g clip-path="url(#clip0_193_4916)">
<path d="M82.202 44C81.202 43.3 79.5019 43 77.1019 43H71.7018L67.7017 56.8H73.0018L74.3018 52L74.5018 51.1C74.5018 51.3 74.6018 51.5 74.6018 51.6C74.6018 51.7 74.6018 51.8 74.6018 51.9L75.8018 56.8H81.502L79.2019 51.1C81.402 50.5 82.802 49.3 83.202 47.6C83.802 46 83.402 44.8 82.202 44ZM78.2019 47.5C78.1019 48 77.7019 48.4 77.2019 48.8C76.7019 49.1 76.1019 49.3 75.5018 49.3H75.1018L76.1019 46H76.3019C77.9019 45.9 78.5019 46.4 78.2019 47.5Z" fill="#003F4B"/>
<path d="M20.0006 43L16.0005 56.8H25.3007L26.2007 53.5H22.3006L25.3007 43H20.0006Z" fill="#003F4B"/>
<path d="M56.8013 43H51.1012L48.5011 47.6C48.1011 48.3 47.7011 49 47.4011 49.7C47.1011 50.4 46.7011 51.2 46.4011 52C46.7011 50.1 46.9011 48.4 47.0011 46.9L47.1011 43H41.501L42.001 56.8H47.4011L56.8013 43Z" fill="#003F4B"/>
<path d="M68.2017 44.9C67.2017 43.6 65.6017 43 63.4016 43C61.6016 43 59.8016 43.5 58.2015 44.4C56.0015 45.6 54.6014 47.5 53.9014 49.8C53.2014 52.3 53.5014 54.1 54.9014 55.3C56.0015 56.3 57.5015 56.8 59.4015 56.8C61.6016 56.8 63.5016 56.2 65.2017 54.9C66.9017 53.6 68.1017 52 68.7018 49.9C69.3018 47.8 69.2018 46.1 68.2017 44.9ZM63.2016 50C62.9016 51.1 62.4016 52 61.9016 52.6C61.4016 53.2 60.8016 53.5 60.2016 53.5C59.6015 53.5 59.2015 53.2 59.1015 52.6C59.0015 52 59.0015 51 59.3015 49.9C59.6015 48.7 60.1016 47.9 60.6016 47.3C61.2016 46.7 61.8016 46.3 62.4016 46.3C63.7016 46.3 63.9016 47.5 63.2016 50Z" fill="#003F4B"/>
<path d="M33.5009 53.1992L31.4008 56.7992H25.7007L26.7007 55.2992L33.5009 53.1992Z" fill="#003F4B"/>
<path d="M35.6009 52.6L40.701 51L35.6009 51.6C35.7009 50.4 35.9009 49.1 36.1009 47.8C35.8009 48.6 35.4009 49.4 35.1008 50.1C34.8008 50.7 34.5008 51.3 34.2008 51.9L28.2007 53.1L35.1008 43H40.501L40.801 51L41.001 56.8H35.4009L35.6009 52.9C35.5009 52.8 35.6009 52.7 35.6009 52.6Z" fill="#003F4B"/>
</g>
<defs>
<clipPath id="clip0_193_4916">
<rect width="67.6016" height="13.8" fill="white" transform="translate(16.0005 43)"/>
</clipPath>
</defs>
</svg>
