<svg width="100" height="100" viewBox="0 0 100 100" fill="none" xmlns="http://www.w3.org/2000/svg">
<g clip-path="url(#clip0_193_4929)">
<path d="M83.6021 44.3984L65.8016 51.1984L66.8017 48.9984L42.7011 57.1984L44.0011 54.3984L16.0005 65.1984L37.001 59.8984L35.3009 63.2984L61.4015 53.4984L59.9015 56.3984L83.6021 44.3984Z" fill="#003F4B"/>
<path d="M78.7021 36.2984C78.7021 35.7984 79.1022 35.3984 79.6022 35.3984C80.1022 35.3984 80.5022 35.7984 80.5022 36.2984C80.5022 36.7984 80.1022 37.1984 79.6022 37.1984C79.1022 37.1984 78.7021 36.7984 78.7021 36.2984ZM79.6022 36.9984C80.0022 36.9984 80.3022 36.6984 80.3022 36.2984C80.3022 35.8984 80.0022 35.5984 79.6022 35.5984C79.2022 35.5984 78.9022 35.8984 78.9022 36.2984C78.9022 36.6984 79.2022 36.9984 79.6022 36.9984ZM79.4022 36.7984H79.2022V35.7984H79.6022C79.8022 35.7984 80.0022 35.8984 80.0022 36.0984C80.0022 36.2984 79.9022 36.3984 79.7022 36.3984L80.0022 36.7984H79.8022L79.5022 36.3984H79.3022V36.7984H79.4022ZM79.6022 36.1984C79.7022 36.1984 79.8022 36.1984 79.8022 35.9984C79.8022 35.8984 79.7022 35.8984 79.6022 35.8984H79.4022V36.1984H79.6022Z" fill="#003F4B"/>
<path d="M31.7009 39.0984L28.6008 41.6984C28.6008 41.6984 27.4008 40.2984 27.3008 40.1984C27.2007 40.2984 24.7007 42.3984 24.7007 42.3984L25.0007 38.8984L16.0005 46.4984L22.2006 43.4984L20.6006 56.8984C20.6006 56.8984 22.5006 58.2984 22.6006 58.3984C22.8006 57.0984 24.3007 44.8984 24.4007 44.1984L26.2007 42.6984L26.6007 43.0984L25.1007 55.1984C25.1007 55.1984 27.0007 56.5984 27.1007 56.6984C27.1007 56.5984 28.4008 45.5984 28.7008 42.9984L30.5008 41.4984L30.9008 41.8984L29.5008 53.6984L31.5008 55.1984L33.2009 40.7984L31.7009 39.0984Z" fill="#003F4B"/>
<path d="M77.5018 42.4L76.9018 41.9L77.0018 40.9L79.9019 39.3L77.6018 36.4L75.5018 38.2L75.0018 42.2L72.2017 43.7L71.5017 43.1L71.6017 42L74.7017 40.3L72.2017 37.3L69.9016 39.3L69.4016 43.1L68.4016 44.1L66.8016 40.9L70.4016 37.6L68.8016 37.8L66.1015 40.1L66.7016 35L64.7015 35.3L63.6015 44.1L62.4015 45.4L62.1014 45.2L62.8015 39.6L60.8014 40L60.1014 45.1L59.2014 46.2L58.8014 45.9L59.5014 40.3L57.4013 40.7L56.7013 46L55.7013 47.2L55.3013 46.8L56.1013 41L54.0013 41.5V42L52.5012 41.3L50.4012 44L49.8012 48.7L51.8012 50.4L53.6013 48L55.2013 49.3L56.9013 47.1L58.4014 48.4L60.0014 46.3L61.6014 47.7L63.7015 45.4L65.3015 46.7L65.8015 42.8L67.5016 46.3L69.7016 44L71.1017 45.2L75.4018 42.8L76.5018 43.8L80.5019 41.5L80.6019 40.6L77.5018 42.4ZM77.3018 38L78.2018 39.1L77.0018 39.8L77.3018 38ZM72.0017 39.1L73.0017 40.3L71.7017 41L72.0017 39.1ZM53.2012 47L52.3012 48.1L51.8012 47.7L52.5012 42.2L53.7013 42.8L53.2012 47ZM48.2011 42.6L47.3011 49.2L46.8011 49.7L46.0011 49L46.8011 42.8L44.701 43.3L43.901 49.8L43.301 50.6L42.601 50L43.401 43.5L41.301 43.9L40.5009 50L39.6009 51.2L39.0009 50.7L40.4009 39.5L38.3009 39.8L37.0009 50.6L36.0008 52.1L35.5008 51.7L36.4009 45.2L34.3008 45.6L33.3008 53.2L35.2008 54.7L37.0009 52.2L38.9009 53.7L40.801 51.2L42.801 52.9L44.801 50.3L46.4011 51.7L49.2012 48.7L50.1012 42.4L48.2011 42.6ZM36.7009 41.8L34.6008 42.2L34.3008 44.3L36.4009 43.9L36.7009 41.8Z" fill="#003F4B"/>
</g>
<defs>
<clipPath id="clip0_193_4929">
<rect width="67.6016" height="30.2" fill="white" transform="translate(16.0005 35)"/>
</clipPath>
</defs>
</svg>
