<svg width="100" height="100" viewBox="0 0 100 100" fill="none" xmlns="http://www.w3.org/2000/svg">
<g clip-path="url(#clip0_193_4939)">
<path d="M66.602 55.3C66.902 55.3 67.002 55.4 67.002 55.7H67.402C67.402 55.2 67.102 55 66.602 55C66.102 55 65.802 55.3 65.802 55.7C65.802 56.1 66.202 56.2 66.402 56.3C66.702 56.4 66.902 56.4 66.902 56.7C66.902 57 66.602 57 66.402 57C66.102 57 65.902 56.9 65.902 56.5H65.502C65.502 57 65.802 57.3 66.302 57.3C67.002 57.3 67.202 56.9 67.202 56.6C67.202 56.1 66.802 56.1 66.502 56C66.302 55.9 66.002 55.9 66.002 55.7C66.202 55.3 66.502 55.3 66.602 55.3Z" fill="#003F4B"/>
<path d="M67.802 57.2008H68.202L68.302 56.8008H67.902L67.802 57.2008Z" fill="#003F4B"/>
<path d="M70.002 55.6016C69.802 55.6016 69.602 55.7016 69.502 55.8016V55.6016H69.202L68.802 57.8016H69.102L69.302 57.0016C69.402 57.2016 69.602 57.3016 69.802 57.3016C70.302 57.3016 70.602 56.8016 70.602 56.3016C70.602 55.9016 70.402 55.6016 70.002 55.6016ZM69.702 57.0016C69.502 57.0016 69.402 56.8016 69.402 56.6016C69.402 56.3016 69.602 55.9016 69.902 55.9016C70.102 55.9016 70.202 56.1016 70.202 56.3016C70.302 56.6016 70.102 57.0016 69.702 57.0016Z" fill="#003F4B"/>
<path d="M71.1021 57.2008H71.5021L71.6021 56.8008H71.2021L71.1021 57.2008Z" fill="#003F4B"/>
<path d="M73.4021 55.1016L72.1021 57.3016H72.5021L72.8021 56.7016H73.7021L73.8021 57.3016H74.2021L73.8021 55.1016H73.4021ZM73.0021 56.4016L73.5021 55.5016L73.6021 56.4016H73.0021Z" fill="#003F4B"/>
<path d="M74.7021 57.2008H75.1021L75.2021 56.8008H74.8021L74.7021 57.2008Z" fill="#003F4B"/>
<path d="M23.2009 43.8984L20.1008 54.2984H76.2021L79.3022 43.8984H23.2009ZM32.1011 48.2984C31.4011 49.9984 31.5011 52.4984 29.201 53.2984C28.401 53.5984 27.601 53.5984 26.701 53.5984C26.101 53.5984 25.501 53.5984 24.9009 53.4984C23.8009 53.2984 22.6009 52.8984 22.3009 51.5984C22.2009 49.9984 23.1009 48.2984 23.5009 46.5984C23.9009 45.7984 24.9009 44.9984 26.001 44.7984C26.901 44.6984 27.801 44.5984 28.701 44.5984C29.501 44.5984 30.2011 44.6984 31.0011 44.7984C31.4011 45.0984 31.9011 45.1984 32.1011 45.6984C32.6011 46.3984 32.3011 47.4984 32.1011 48.2984ZM48.0015 53.5984H45.0014L46.8014 47.6984L43.2014 53.5984H40.4013V47.5984L38.6013 53.4984H35.7012L38.2013 44.7984H43.0014L43.3014 48.7984L45.8014 44.7984H50.5015L48.0015 53.5984ZM63.4018 48.2984H60.1018C60.2018 47.7984 60.5018 46.9984 60.3018 46.4984C60.0018 46.1984 59.5017 45.9984 59.0017 46.0984C57.9017 46.1984 57.6017 47.2984 57.3017 48.0984C56.9017 49.1984 56.4017 50.1984 56.6017 51.4984C56.8017 51.7984 56.9017 51.8984 57.3017 51.9984C57.8017 52.0984 58.8017 52.0984 59.2017 51.1984C59.6017 50.7984 59.8018 49.9984 59.8018 49.9984H63.0018C62.6018 51.1984 62.3018 52.4984 61.0018 53.1984C60.3018 53.5984 59.1017 53.7984 57.8017 53.7984C56.5017 53.7984 55.1016 53.5984 54.1016 52.9984C53.3016 52.3984 53.4016 51.2984 53.6016 50.4984C54.0016 49.0984 54.3016 47.5984 54.9016 46.2984C55.8017 44.7984 57.8017 44.7984 59.5017 44.6984C60.8018 44.7984 62.4018 44.5984 63.4018 45.4984C63.9019 46.1984 63.6018 47.3984 63.4018 48.2984ZM75.5021 53.5984H72.6021L71.302 49.2984L70.002 53.5984H66.9019L69.402 44.8984H72.6021L74.0021 48.5984L75.1021 44.8984H78.0022L75.5021 53.5984Z" fill="#003F4B"/>
<path d="M27.1011 46.4016C26.1011 47.5016 26.0011 49.1016 25.6011 50.3016C25.5011 50.8016 25.3011 51.3016 25.8011 51.7016C26.4011 52.1016 27.1011 51.8016 27.7011 51.5016C28.5011 50.3016 28.6011 48.9016 29.1012 47.6016C29.3012 47.2016 29.2012 46.7016 28.9012 46.4016C28.5011 46.0016 27.6011 46.0016 27.1011 46.4016Z" fill="#003F4B"/>
<path d="M20.8008 41L16.0007 57.2H64.1018L64.8019 55.1H19.0008L22.5009 43.1H80.5022L76.4021 57.2H78.8022L83.6023 41H20.8008Z" fill="#003F4B"/>
</g>
<defs>
<clipPath id="clip0_193_4939">
<rect width="67.6016" height="16.8" fill="white" transform="translate(16.0007 41)"/>
</clipPath>
</defs>
</svg>
