<svg width="100" height="100" viewBox="0 0 100 100" fill="none" xmlns="http://www.w3.org/2000/svg">
<g clip-path="url(#clip0_193_4953)">
<path d="M30.5003 43H16.8L16 45.5H21.1001L17.5 57.2H22.6002L26.2002 45.5H31.3004L30.5003 43Z" fill="#003F4B"/>
<path d="M60.5011 43H46.8008L46.0007 45.5H51.1008L47.5008 57.2H52.6009L56.201 45.5H61.3011L60.5011 43Z" fill="#003F4B"/>
<path d="M77.1014 54.9L80.6015 43H75.5014L71.3013 57.2H76.4014H82.9015L83.6016 54.9H77.1014Z" fill="#003F4B"/>
<path d="M66.6013 57.2H71.7014L67.4013 43H62.3012L65.3012 53.1H61.8011L63.1012 51.2L61.5011 46.5L54.501 57.2H59.1011L60.3011 55.4H66.0012L66.6013 57.2Z" fill="#003F4B"/>
<path d="M37.9005 54.8H33.8004C33.4004 54.8 33.1004 54.4 33.2004 54L35.4005 46.6L34.3004 43C32.5004 43 31.0004 44.2 30.4004 45.9L28.0003 53.8C27.5003 55.5 28.7003 57.1 30.5004 57.1H38.7006L37.9005 54.8Z" fill="#003F4B"/>
<path d="M43.9006 43H35.9004L36.6004 45.3H40.8005C41.2005 45.3 41.5005 45.7 41.4005 46.1L39.2005 53.7L40.3005 57.1C42.1005 56.9 43.6006 55.7 44.2006 53.9L46.4006 46.2C46.8006 44.6 45.6006 43 43.9006 43Z" fill="#003F4B"/>
</g>
<defs>
<clipPath id="clip0_193_4953">
<rect width="67.6016" height="22" fill="white" transform="translate(16.001 39)"/>
</clipPath>
</defs>
</svg>
