<svg width="100" height="100" viewBox="0 0 100 100" fill="none" xmlns="http://www.w3.org/2000/svg">
<g clip-path="url(#clip0_193_4986)">
<path d="M37.5019 42.5996C37.5019 42.5996 37.6019 43.0996 37.8019 42.9996C37.8019 42.9996 37.9019 42.8996 37.8019 42.6996C37.8019 42.6996 37.4018 41.7996 36.7018 41.6996C36.7018 41.6996 35.9018 41.5996 35.6018 41.8996C35.7018 41.7996 36.5018 42.6996 37.5019 42.5996Z" fill="#003F4B"/>
<path d="M34.8018 42.1016V42.3016C34.8018 42.3016 35.6018 42.6016 35.7018 43.0016C35.7018 43.0016 36.0018 43.8016 35.7018 44.6016C35.7018 44.6016 35.5018 44.9016 35.7018 45.2016L36.2018 46.0016C36.1018 45.4016 36.3018 45.7016 36.3018 44.0016C36.4018 42.3016 34.8018 42.1016 34.8018 42.1016Z" fill="#003F4B"/>
<path d="M40.102 46.7992C40.102 46.7992 40.502 46.2992 40.702 45.4992C40.702 45.4992 40.702 44.9992 40.502 44.8992C40.502 44.8992 40.202 44.6992 39.7019 44.5992C39.7019 44.5992 38.9019 44.3992 38.7019 44.1992C38.7019 44.1992 38.3019 44.1992 38.2019 44.3992C38.2019 44.3992 38.4019 44.6992 39.6019 44.9992C39.6019 44.9992 40.302 45.0992 40.302 45.3992C40.202 46.1992 39.8019 46.4992 39.8019 46.4992C39.8019 46.4992 39.5019 46.7992 39.0019 46.4992C39.0019 46.4992 38.2019 45.7992 37.3019 45.8992C37.3019 45.8992 37.2019 46.2992 37.5019 46.2992C37.5019 46.2992 38.0019 46.1992 38.3019 46.4992L39.0019 47.0992C39.0019 47.0992 39.7019 47.4992 40.102 46.7992Z" fill="#003F4B"/>
<path d="M32.2017 40.4009V40.8009C32.2017 40.8009 33.5017 40.7009 34.4017 41.7009C34.4017 41.7009 34.7017 41.6009 34.4017 41.3009C33.4017 40.2009 32.2017 40.4009 32.2017 40.4009Z" fill="#003F4B"/>
<path d="M56.7022 55.1992C57.6023 55.1992 57.8023 54.8992 58.0023 53.1992C58.3023 51.4992 58.2023 51.1992 57.3023 51.1992C56.3022 51.1992 56.2022 51.4992 55.9022 53.1992C55.7022 54.8992 55.8022 55.1992 56.7022 55.1992Z" fill="#003F4B"/>
<path d="M39.8019 44C39.8019 44 41.402 44.4 42.102 45C42.102 45 42.802 45.5 42.802 46.2C42.802 46.2 43.102 46.3 43.102 45.9C43.102 45.9 43.002 45.2 42.102 44.4C42.102 44.4 41.202 43.7 39.9019 43.5C39.9019 43.5 39.1019 43.4 39.1019 43.2C39.1019 43.2 38.9019 42.9 38.7019 43.1C38.6019 43.2 38.3019 43.6 39.8019 44Z" fill="#003F4B"/>
<path d="M83.0028 48.9003C82.7028 48.6003 82.2028 48.2003 81.4028 48.2003C81.2028 48.2003 80.9028 48.2003 80.7028 48.3003H77.0027L76.8027 49.3003C76.8027 49.3003 76.8027 49.2003 76.7027 49.2003C76.0027 48.3003 74.8027 48.2003 73.9026 48.2003C73.1026 48.2003 72.4026 48.3003 71.9026 48.5003L72.0026 48.3003H60.1023V48.7003C59.4023 48.3003 58.6023 48.2003 57.7023 48.2003C56.5022 48.2003 55.6022 48.4003 55.0022 48.8003C55.0022 47.6003 54.7022 46.7003 54.2022 46.0003C53.5022 45.2003 52.5021 44.8003 51.2021 44.8003H45.202V45.1003C44.902 44.7003 44.502 44.3003 44.0019 44.0003C43.9019 43.9003 42.2019 42.6003 40.3019 41.9003C40.2018 41.9003 39.9018 41.8003 39.6018 41.7003C39.5018 41.7003 39.4018 41.7003 39.4018 41.7003C39.1018 41.4003 38.5018 40.8003 37.5018 40.5003C37.4018 40.4003 36.8018 40.2003 36.0018 40.3003H36.1018C36.0018 40.3003 35.9017 40.3003 35.8017 40.3003C35.5017 40.1003 34.5017 39.6003 34.0017 39.4003C33.7017 39.2003 33.0017 38.9003 32.3017 39.0003H32.4017C32.2017 39.0003 31.8017 39.1003 31.4016 39.2003L31.1016 39.3003C30.6016 39.4003 29.7016 39.9003 29.6016 41.1003V41.4003C29.5016 41.7003 29.3016 42.1003 29.3016 42.7003C29.3016 43.0003 29.3016 43.2003 29.4016 43.6003C29.4016 43.7003 28.9016 44.6003 28.7016 45.6003L28.6016 45.7003L28.7016 45.6003C28.6016 45.7003 28.5016 45.9003 28.3016 46.1003L28.5016 44.8003H23.8015L22.3014 54.2003C22.2014 54.8003 22.1014 54.9003 22.1014 55.0003C22.0014 55.0003 21.9014 55.0003 21.5014 55.0003C21.3014 55.0003 21.1014 55.0003 20.9014 55.0003C20.9014 54.9003 20.9014 54.8003 20.9014 54.7003L22.5014 44.8003H17.8013L16.2013 54.5003C15.9013 56.2003 15.8013 57.8003 16.7013 58.9003C17.5013 59.8003 18.7014 60.2003 21.0014 60.2003C23.4015 60.2003 25.0015 59.5003 25.9015 58.0003V58.2003H31.3016L31.9017 55.0003C31.9017 55.2003 32.0017 55.4003 32.1017 55.6003L32.2017 55.8003C33.8017 59.9003 38.5018 60.2003 40.0018 60.2003H82.2028L82.7028 57.2003H79.6028C79.8028 56.2003 80.0028 54.6003 80.2028 53.8003H83.2029L83.4029 52.3003C83.5029 51.8003 83.6029 51.2003 83.6029 50.7003C83.6029 50.0003 83.4029 49.4003 83.0028 48.9003ZM74.0026 49.2003C76.3027 49.2003 76.8027 50.0003 76.3027 53.2003L76.2027 53.6003H72.3026C72.1026 55.0003 72.2026 55.4003 73.0026 55.4003C73.6026 55.4003 74.0026 55.3003 74.1026 54.5003H76.0027C75.8027 55.7003 75.4027 56.3003 74.8027 56.7003C74.2026 57.1003 73.5026 57.2003 72.6026 57.2003C70.2025 57.2003 69.8025 56.1003 70.3026 53.2003C70.9026 50.2003 71.6026 49.2003 74.0026 49.2003ZM61.1023 49.3003H63.0024L62.7024 55.4003H62.8024L64.8024 49.3003H67.0025V55.4003H67.1025L68.8025 49.3003H70.7026L68.4025 57.1003H65.6024L65.7024 51.5003H65.6024L63.9024 57.1003H61.0023L61.1023 49.3003ZM57.7023 49.2003C60.2023 49.2003 60.6023 49.9003 60.1023 53.2003C59.6023 56.4003 58.9023 57.2003 56.4022 57.2003C53.9022 57.2003 53.5022 56.3003 54.1022 53.2003C54.5022 50.0003 55.2022 49.2003 57.7023 49.2003ZM30.6016 41.7003C30.6016 41.7003 31.1016 42.2003 31.4016 42.2003C30.8016 43.0003 30.5016 43.6003 30.5016 43.6003C30.2016 42.2003 30.6016 41.7003 30.6016 41.7003ZM30.2016 44.3003C30.2016 44.8003 30.4016 46.1003 30.4016 46.1003C30.2016 45.8003 29.8016 45.9003 29.8016 45.9003C29.8016 45.0003 30.2016 44.3003 30.2016 44.3003ZM21.0014 59.2003C16.9013 59.2003 16.7013 57.9003 17.2013 54.7003L18.6013 45.9003H21.3014L19.9014 54.6003C19.7014 56.1003 20.3014 56.1003 21.4014 56.1003C22.6014 56.1003 23.0015 56.0003 23.2015 54.4003L24.6015 45.8003H27.3016L26.0015 54.7003C25.4015 58.2003 24.0015 59.2003 21.0014 59.2003ZM30.5016 57.1003H27.1015L27.7016 53.7003H31.1016L30.5016 57.1003ZM39.1018 49.8003C39.1018 49.5003 38.5018 49.7003 38.5018 49.7003C38.8018 50.7003 38.3018 51.8003 38.3018 51.8003C37.8018 52.8003 38.2018 55.0003 38.2018 55.0003C39.1018 57.3003 39.5018 57.0003 40.2019 57.6003C35.6017 57.5003 35.7017 55.1003 35.7017 55.1003C35.7017 54.6003 36.3018 53.5003 36.3018 53.5003C36.8018 52.8003 37.2018 51.7003 37.2018 51.7003C37.3018 51.3003 36.8018 51.4003 36.8018 51.4003C36.6018 52.0003 36.0018 53.1003 36.0018 53.1003C35.5017 53.8003 35.2017 54.6003 35.2017 54.6003C35.2017 54.7003 35.1017 54.7003 35.1017 54.8003C34.8017 57.9003 38.9018 58.2003 40.1018 58.2003H43.0019L42.8019 59.2003H39.9018C38.8018 59.2003 34.4017 59.0003 33.0017 55.4003C33.0017 55.3003 32.9017 55.3003 32.9017 55.3003C32.2017 53.3003 33.6017 52.5003 33.6017 52.5003C34.3017 52.1003 35.0017 51.3003 35.0017 51.3003C35.9018 50.4003 36.2018 48.5003 36.2018 48.5003C36.2018 48.2003 35.7017 48.3003 35.7017 48.3003C35.6017 48.7003 35.2017 49.7003 35.2017 49.7003C34.7017 51.3003 33.2017 52.1003 33.2017 52.1003C32.1017 52.6003 32.4017 53.9003 32.4017 53.9003C32.1017 53.4003 31.6017 52.7003 31.4016 50.2003C31.4016 50.2003 31.4016 49.3003 32.8017 48.5003C33.2017 48.3003 33.6017 47.9003 33.9017 47.4003C34.4017 46.8003 34.4017 45.7003 34.4017 45.7003C34.4017 44.7003 35.1017 44.1003 35.1017 44.1003C35.2017 44.0003 35.1017 43.9003 35.1017 43.9003C35.4017 43.8003 35.0017 43.7003 35.0017 43.7003C34.1017 44.0003 33.9017 46.3003 33.9017 46.3003C33.9017 46.6003 33.6017 47.1003 33.6017 47.1003C33.5017 47.3003 32.9017 47.8003 32.9017 47.8003C31.9017 48.3003 31.3016 49.2003 31.3016 49.2003C30.8016 50.1003 31.3016 51.4003 31.3016 51.4003L30.9016 51.1003C28.3016 49.2003 29.0016 47.5003 29.0016 47.5003C29.0016 46.9003 29.5016 46.3003 29.5016 46.3003C29.7016 46.0003 30.1016 46.2003 30.1016 46.2003C30.2016 46.3003 30.4016 46.4003 30.4016 46.4003C30.4016 46.4003 32.9017 47.5003 32.7017 43.3003V43.1003C32.7017 42.7003 32.2017 42.3003 32.2017 42.3003C32.0017 42.1003 31.4016 41.9003 31.4016 41.9003C31.1016 41.8003 31.2016 41.4003 31.2016 41.4003C31.2016 40.9003 31.5016 40.6003 31.5016 40.6003C31.6017 40.5003 31.3016 40.5003 31.3016 40.5003C30.9016 41.0003 30.9016 41.6003 30.9016 41.6003C30.7016 41.5003 30.6016 41.1003 30.6016 41.1003C30.7016 40.3003 31.3016 40.2003 31.3016 40.2003C31.5016 40.2003 31.7017 40.1003 31.7017 40.1003C31.9017 40.1003 32.4017 40.0003 32.4017 40.0003C32.8017 39.9003 33.4017 40.2003 33.4017 40.2003C33.8017 40.4003 35.2017 41.2003 35.2017 41.2003C35.3017 41.3003 36.0018 41.3003 36.0018 41.3003C36.5018 41.2003 36.9018 41.4003 36.9018 41.4003C37.9018 41.7003 38.6018 42.5003 38.6018 42.5003C38.7018 42.7003 39.3018 42.7003 39.3018 42.7003C39.5018 42.7003 39.8018 42.8003 39.8018 42.8003C41.6019 43.4003 43.3019 44.7003 43.3019 44.7003C45.102 46.0003 45.002 47.4003 45.002 47.4003L44.4019 51.4003C44.2019 49.9003 43.4019 49.0003 43.4019 49.0003C42.7019 47.9003 40.8019 47.6003 40.8019 47.6003C40.5019 47.5003 40.4019 48.1003 40.4019 48.1003C41.0019 48.2003 40.9019 48.1003 41.8019 48.5003C43.3019 49.3003 43.5019 50.6003 43.5019 50.6003C44.0019 52.5003 43.7019 54.0003 43.7019 54.0003L43.0019 57.7003H41.9019C41.9019 57.7003 39.7018 57.9003 38.7018 54.3003C38.3018 52.9003 39.0018 51.7003 39.0018 51.7003C39.4018 50.8003 39.1018 49.8003 39.1018 49.8003ZM46.502 59.1003H43.8019L46.002 45.8003H51.1021C53.6022 45.8003 54.4022 47.2003 53.8022 50.7003C53.2022 54.4003 52.3021 55.7003 49.5021 55.7003H47.002L46.502 59.1003ZM81.5028 58.2003L81.3028 59.2003H47.302L47.502 58.2003H81.5028ZM82.4028 52.1003L82.3028 52.7003H80.5028L80.6028 52.3003C80.7028 51.7003 80.8028 51.1003 80.3028 51.1003C79.7028 51.1003 79.5028 51.7003 79.4028 52.4003L78.6027 57.1003H76.6027L77.9027 49.3003H79.8028L79.6028 50.4003H79.7028C80.1028 49.5003 80.7028 49.2003 81.4028 49.2003C82.8028 49.2003 82.6028 50.7003 82.4028 52.1003Z" fill="#003F4B"/>
<path d="M73.7026 51C73.0026 51 72.7025 51.2 72.6025 52.2H74.5026C74.6026 51.1 74.3026 51 73.7026 51Z" fill="#003F4B"/>
<path d="M51.0021 50.6984C51.2021 49.2984 51.1021 48.8984 50.1021 48.8984H48.2021L47.6021 52.5984H49.5021C50.5021 52.5984 50.7021 52.3984 51.0021 50.6984Z" fill="#003F4B"/>
</g>
<defs>
<clipPath id="clip0_193_4986">
<rect width="67.6016" height="21.2" fill="white" transform="translate(16.0012 39)"/>
</clipPath>
</defs>
</svg>
