<svg width="100" height="100" viewBox="0 0 100 100" fill="none" xmlns="http://www.w3.org/2000/svg">
<g clip-path="url(#clip0_193_5000)">
<path d="M73.5028 36.3C67.1027 32.9 58.7025 31 49.8022 31C40.902 31 32.5018 32.9 26.1017 36.3C19.6015 39.8 16.0015 44.6 16.0015 49.7C16.0015 54.8 19.6015 59.5 26.1017 63C32.4018 66.4 40.902 68.3 49.8022 68.3C58.7025 68.3 67.1027 66.4 73.5028 63C80.003 59.5 83.603 54.7 83.603 49.7C83.603 44.6 80.003 39.8 73.5028 36.3ZM49.8022 31.9C64.0026 31.9 76.1029 36.8 80.703 43.6H18.8015C23.5016 36.7 35.6019 31.9 49.8022 31.9ZM77.3029 52.7L77.9029 53V53.4H73.3028V53L73.9028 52.7V50.6L71.3027 46.6L70.8027 46.2V45.9H76.0029V46.3L75.4028 47.1L76.7029 49.2H76.8029L78.2029 46.9L77.7029 46.2V46H80.303V46.3C79.7029 46.4 79.2029 46.8 78.9029 47.3L77.2029 50L77.3029 52.7ZM67.9027 52.7L68.4027 53.1V53.4H63.6026V53.1L64.3026 52.8V46.7L62.8026 48.7H62.4025V46H69.8027V48.7H69.5027L67.9027 46.7V52.7ZM60.3025 52.7L60.8025 53.1V53.4H56.1024V53.1L56.7024 52.7V46.6L56.1024 46.4V46H60.9025V46.4L60.3025 46.7V52.7ZM48.2022 46.6L47.5022 46.3V45.9H52.1023V46.3L51.5023 46.6V52.3C51.6023 52.4 51.7023 52.4 51.8023 52.4H52.6023L54.3024 50.5H54.6024V53.3H47.4022V52.9L48.2022 52.3V46.6ZM44.5021 52.7L45.0021 53.1V53.4H40.302V53.1L40.902 52.7V46.6L40.302 46.4V46H45.1021V46.4L44.5021 46.7V52.7ZM36.5019 52.7L37.002 53.1V53.4H32.2018V53.1L32.9019 52.8V46.7L31.3018 48.7H31.0018V46H38.402V48.7H38.102L36.5019 46.7V52.7ZM19.9016 46.4V46.1H24.9017V46.4L24.3017 46.7V51.7C24.3017 53.1 27.4017 53.3 27.4017 51.2V46.8L26.7017 46.6V46.3H28.7018V46.7L28.2017 46.9V47.7V51.4C28.2017 52.2 27.7017 52.8 27.2017 53.2C26.7017 53.6 25.7017 53.7 24.4017 53.7C23.5016 53.7 22.7016 53.7 21.8016 53.3C21.1016 53 20.5016 52.4 20.5016 51.6V46.9L19.9016 46.4ZM49.8022 67.5C35.5019 67.5 23.4016 62.6 18.8015 55.7H80.803C76.2029 62.5 64.1026 67.5 49.8022 67.5Z" fill="#003F4B"/>
<path d="M40.1021 58.1992H39.1021V62.7992H40.1021V58.1992Z" fill="#003F4B"/>
<path d="M54.3024 58.3992C54.0024 58.1992 53.6024 58.1992 53.1024 58.1992C52.7024 58.1992 52.4024 58.1992 52.2024 58.2992C51.9024 58.3992 51.7024 58.4992 51.5024 58.6992C51.1023 59.0992 50.9023 59.6992 50.9023 60.5992C50.9023 61.0992 51.0023 61.4992 51.2023 61.7992C51.4024 62.0992 51.6024 62.3992 51.9024 62.5992C52.3024 62.7992 52.7024 62.8992 53.2024 62.8992C53.6024 62.8992 53.9024 62.7992 54.2024 62.6992C54.6024 62.4992 54.9024 62.2992 55.1024 61.7992C55.3024 61.4992 55.3024 61.0992 55.3024 60.5992C55.3024 60.0992 55.2024 59.6992 55.1024 59.3992C55.0024 58.8992 54.7024 58.5992 54.3024 58.3992ZM54.0024 61.6992C53.8024 61.9992 53.5024 62.0992 53.1024 62.0992C52.7024 62.0992 52.4024 61.9992 52.2024 61.6992C52.0024 61.3992 52.0024 60.9992 52.0024 60.4992C52.0024 59.9992 52.1024 59.5992 52.2024 59.3992C52.4024 59.0992 52.7024 58.9992 53.2024 58.9992C53.6024 58.9992 54.0024 59.1992 54.1024 59.4992C54.3024 59.7992 54.3024 60.0992 54.3024 60.5992C54.3024 60.9992 54.2024 61.3992 54.0024 61.6992Z" fill="#003F4B"/>
<path d="M38.202 59.2992C38.002 58.7992 37.702 58.4992 37.202 58.2992C36.902 58.1992 36.602 58.1992 36.1019 58.1992H34.2019V62.7992H36.1019C36.502 62.7992 36.802 62.7992 37.002 62.6992C37.202 62.6992 37.402 62.5992 37.602 62.4992C37.902 62.2992 38.102 61.9992 38.202 61.6992C38.302 61.2992 38.402 60.8992 38.402 60.4992C38.402 60.2992 38.402 60.0992 38.402 59.8992C38.302 59.6992 38.302 59.4992 38.202 59.2992ZM37.302 60.7992C37.302 60.8992 37.302 60.9992 37.202 61.0992C37.102 61.2992 37.102 61.4992 37.002 61.5992C36.802 61.7992 36.502 61.8992 36.1019 61.8992H35.1019V58.9992H36.1019C36.502 58.9992 36.702 59.0992 36.902 59.1992C37.002 59.2992 37.102 59.4992 37.202 59.6992C37.302 59.8992 37.302 60.1992 37.302 60.3992C37.302 60.5992 37.302 60.6992 37.302 60.7992Z" fill="#003F4B"/>
<path d="M62.6024 58.1992L60.7024 62.7992H61.8024L62.2024 61.6992H64.0025L64.4025 62.7992H65.5025L63.6025 58.1992H62.6024ZM62.5024 60.8992L63.2025 59.2992L63.8025 60.8992H62.5024Z" fill="#003F4B"/>
<path d="M60.2026 62.0984C60.2026 61.9984 60.2026 61.8984 60.2026 61.8984C60.2026 61.7984 60.2026 61.7984 60.2026 61.6984C60.2026 61.5984 60.1026 61.4984 60.1026 61.3984C60.0026 61.2984 59.9026 61.1984 59.9026 61.0984C59.9026 61.0984 59.8026 60.9984 59.7026 60.9984C59.6026 60.9984 59.6026 60.8984 59.5026 60.8984C59.7026 60.7984 59.9026 60.6984 60.0026 60.5984C60.2026 60.3984 60.3026 59.9984 60.3026 59.5984C60.3026 59.3984 60.3026 59.1984 60.2026 58.9984C60.1026 58.7984 60.0026 58.6984 59.8026 58.5984C59.5026 58.3984 59.1026 58.3984 58.5025 58.3984H56.3025V62.9984H57.3025V60.9984H58.1025C58.4025 60.9984 58.7025 60.9984 58.8025 61.0984C58.9026 61.1984 59.1026 61.2984 59.1026 61.3984C59.2026 61.4984 59.2026 61.7984 59.3026 62.0984C59.3026 62.3984 59.4026 62.5984 59.4026 62.6984H60.5026C60.5026 62.5984 60.4026 62.4984 60.4026 62.3984C60.2026 62.3984 60.2026 62.1984 60.2026 62.0984ZM59.0026 60.0984C58.9026 60.1984 58.7025 60.1984 58.5025 60.1984H57.1025V58.9984H58.5025C58.7025 58.9984 58.8026 58.9984 58.9026 58.9984C59.1026 59.0984 59.2026 59.2984 59.2026 59.4984C59.2026 59.7984 59.1026 59.9984 59.0026 60.0984Z" fill="#003F4B"/>
<path d="M42.6022 58.1992L40.7021 62.7992H41.8022L42.2022 61.6992H44.0022L44.4022 62.7992H45.5023L43.6022 58.1992H42.6022ZM42.5022 60.8992L43.2022 59.2992L43.8022 60.8992H42.5022Z" fill="#003F4B"/>
<path d="M50.2022 59.2992C50.0022 58.7992 49.7022 58.4992 49.2022 58.2992C48.9022 58.1992 48.6022 58.1992 48.1022 58.1992H46.2021V62.7992H48.1022C48.5022 62.7992 48.8022 62.7992 49.0022 62.6992C49.2022 62.6992 49.4022 62.5992 49.6022 62.4992C49.9022 62.2992 50.1022 61.9992 50.2022 61.6992C50.3022 61.2992 50.4022 60.8992 50.4022 60.4992C50.4022 60.2992 50.4022 60.0992 50.4022 59.8992C50.3022 59.6992 50.2022 59.4992 50.2022 59.2992ZM49.3022 60.7992C49.3022 60.8992 49.3022 60.9992 49.2022 61.0992C49.1022 61.2992 49.1022 61.4992 49.0022 61.5992C48.8022 61.7992 48.5022 61.8992 48.1022 61.8992H47.1022V58.9992H48.1022C48.5022 58.9992 48.7022 59.0992 48.9022 59.1992C49.0022 59.2992 49.1022 59.4992 49.2022 59.6992C49.3022 59.8992 49.3022 60.1992 49.3022 60.3992C49.3022 60.5992 49.3022 60.6992 49.3022 60.7992Z" fill="#003F4B"/>
</g>
<defs>
<clipPath id="clip0_193_5000">
<rect width="67.6016" height="37.3" fill="white" transform="translate(16.0015 31)"/>
</clipPath>
</defs>
</svg>
