<svg width="80" height="80" viewBox="0 0 80 80" fill="none" xmlns="http://www.w3.org/2000/svg">
<path d="M13.625 48.25H23V53H13.625C12.375 53 11.25 54 11.25 55.375C11.25 56.75 12.25 57.75 13.625 57.75H72.125C73.375 57.75 74.5 58.75 74.5 60.125C74.5 61.375 73.5 62.5 72.125 62.5H13.5C9.625 62.5 6.5 59.375 6.5 55.5C6.5 51.375 9.75001 48.25 13.625 48.25ZM11.875 32.125L16.5 31.75C16.5 31.625 13.625 14.5 13 11C12.625 9 11.875 3.375 4.75 3.375V8.125C7.625 8.125 8 9.25 8.25 11.375C9 14.875 11.875 31.875 11.875 32.125Z" fill="#B2C1C0"/>
<path d="M11.625 15.375H75C77.375 15.375 77.75 17.625 77.375 18.875L70.25 50.625C69.875 51.875 68.625 52.875 67.25 52.875H17.5C16.25 52.875 15 51.875 14.75 50.5L9.49998 17.625C9.37498 16.5 10.375 15.375 11.625 15.375ZM71.375 26L72.625 21.25C72.75 20.625 72.375 20.125 71.75 20.125H62.875C62.25 20.125 61.625 20.625 61.625 21.25L61.125 26C61 26.625 61.5 27.125 62.125 27.125H70C70.625 27.125 71.25 26.625 71.375 26ZM67.375 37.625C68 37.625 68.625 37.125 68.875 36.5L69.75 32.875C69.875 32.25 69.5 31.75 68.875 31.75H61.75C61.125 31.75 60.5 32.25 60.5 32.875L60.125 36.375C60 37 60.5 37.5 61.125 37.5C61 37.625 67.375 37.625 67.375 37.625ZM59.875 48.25H64.75C65.375 48.25 66 47.75 66.25 47.125L67.125 43.5C67.25 42.875 66.875 42.375 66.25 42.375H60.625C60 42.375 59.375 42.875 59.375 43.5L59 47C58.75 47.625 59.25 48.25 59.875 48.25ZM45.5 47C45.5 47.625 46 48.125 46.625 48.125H52.75C53.375 48.125 54 47.625 54 47L54.375 43.5C54.5 42.875 54 42.375 53.375 42.375H46.625C46 42.375 45.5 42.875 45.5 43.5V47ZM45.5 36.5C45.5 37.125 46 37.625 46.625 37.625H53.875C54.5 37.625 55.125 37.125 55.125 36.5L55.5 33C55.625 32.375 55.125 31.875 54.5 31.875H46.625C46 31.875 45.5 32.375 45.5 33V36.5ZM45.5 26C45.5 26.625 46 27.125 46.625 27.125H55C55.625 27.125 56.25 26.625 56.25 26L56.875 21.25C57 20.625 56.5 20.125 55.875 20.125H46.75C46.125 20.125 45.625 20.625 45.625 21.25C45.5 21.25 45.5 26 45.5 26ZM32.75 47C32.875 47.625 33.375 48.125 34 48.125H39.5C40.125 48.125 40.625 47.625 40.625 47V43.5C40.625 42.875 40.125 42.375 39.5 42.375H33.375C32.75 42.375 32.25 42.875 32.375 43.5L32.75 47ZM31.625 36.5C31.75 37.125 32.25 37.625 32.875 37.625H39.5C40.125 37.625 40.625 37.125 40.625 36.5V33C40.625 32.375 40.125 31.875 39.5 31.875H32.25C31.625 31.875 31.125 32.375 31.25 33L31.625 36.5ZM30.5 26C30.625 26.625 31.125 27.125 31.75 27.125H39.5C40.125 27.125 40.625 26.625 40.625 26V21.25C40.625 20.625 40.125 20.125 39.5 20.125H31C30.375 20.125 29.875 20.625 30 21.25L30.5 26ZM19.625 47C19.75 47.625 20.375 48.125 21 48.125H27C27.625 48.125 28.125 47.625 28 47L27.625 43.5C27.5 42.875 27 42.375 26.375 42.375H20C19.375 42.375 18.875 42.875 19 43.5L19.625 47ZM18 36.5C18.125 37.125 18.75 37.625 19.375 37.625H26C26.625 37.625 27.125 37.125 27 36.5L26.625 33C26.5 32.375 26 31.875 25.375 31.875H18.5C17.875 31.875 17.375 32.375 17.5 33L18 36.5ZM16.375 26C16.5 26.625 17.125 27.125 17.75 27.125H24.875C25.5 27.125 26 26.625 25.875 26L25.375 21.25C25.25 20.625 24.75 20.125 24.125 20.125H16.75C16.125 20.125 15.625 20.625 15.75 21.25L16.375 26Z" fill="#EA5734"/>
<path d="M64.625 77.5C60.759 77.5 57.625 74.366 57.625 70.5C57.625 66.634 60.759 63.5 64.625 63.5C68.491 63.5 71.625 66.634 71.625 70.5C71.625 74.366 68.491 77.5 64.625 77.5Z" fill="#808080"/>
<path d="M64.625 74C62.692 74 61.125 72.433 61.125 70.5C61.125 68.567 62.692 67 64.625 67C66.558 67 68.125 68.567 68.125 70.5C68.125 72.433 66.558 74 64.625 74Z" fill="white"/>
<path d="M22.375 77.5C18.509 77.5 15.375 74.366 15.375 70.5C15.375 66.634 18.509 63.5 22.375 63.5C26.241 63.5 29.375 66.634 29.375 70.5C29.375 74.366 26.241 77.5 22.375 77.5Z" fill="#808080"/>
<path d="M18.875 70.5C18.875 72.5 20.5 74 22.375 74C24.375 74 25.875 72.375 25.875 70.5C25.875 68.5 24.25 67 22.375 67C20.5 67 18.875 68.5 18.875 70.5Z" fill="white"/>
<path d="M3.625 2.5H7.125V9.5H3.625C3 9.5 2.5 9 2.5 8.375V3.625C2.5 3 3 2.5 3.625 2.5Z" fill="#808080"/>
<path d="M64.625 61.125C69.75 61.125 74 65.375 74 70.5H55.25C55.25 65.25 59.375 61.125 64.625 61.125ZM22.375 61.125C27.5 61.125 31.75 65.375 31.75 70.5H13C13 65.25 17.25 61.125 22.375 61.125Z" fill="#EA5734"/>
</svg>
