<svg width="94" height="16" viewBox="0 0 94 16" fill="none" xmlns="http://www.w3.org/2000/svg">
<path d="M0 15.938V0H4.12788V6.82171H4.18949L10.3505 0H15.2485L8.19416 7.56589L15.495 15.938H10.5661L4.18949 8.74419H4.15869V15.938H0Z" fill="#003F4B"/>
<path d="M16.9121 15.938V0H28.0944V3.22481H20.8552V6.26357H27.5707V9.48837H20.8552V12.7752H28.0944V16H16.9121V15.938Z" fill="#003F4B"/>
<path d="M31.606 15.938V0H34.6249L41.8949 9.14729V0H45.7147V15.938H42.6958L35.4258 6.82171V15.969H31.606V15.938Z" fill="#003F4B"/>
<path d="M49.5347 15.938V0H52.5536L59.8236 9.14729V0H63.6434V15.938H60.6245L53.3853 6.82171V15.969H49.5347V15.938Z" fill="#003F4B"/>
<path d="M67.4629 15.938V0H78.6451V3.22481H71.4059V6.26357H78.1215V9.48837H71.4059V12.7752H78.6451V16H67.4629V15.938Z" fill="#003F4B"/>
<path d="M82.1572 15.938V0H93.2163V3.22481H86.2851V6.44961H92.7234V9.6124H86.2851V15.938H82.1572Z" fill="#003F4B"/>
</svg>
