<svg width="82" height="32" viewBox="0 0 82 32" fill="none" xmlns="http://www.w3.org/2000/svg">
<rect x="0.5" y="0.5" width="81" height="31" stroke="white"/>
<g clip-path="url(#clip0_193_5160)">
<path d="M19.6072 11L17.5 13.8117C17.5 13.8117 28.4321 13.8117 28.9909 13.8117C29.573 13.8117 29.5614 14.0289 29.282 14.4061C28.9909 14.7947 28.5136 15.4576 28.2225 15.8462C28.0712 16.0405 27.8034 16.4063 28.6999 16.4063C29.6429 16.4063 33.4033 16.4063 33.4033 16.4063C33.4033 16.4063 34.1601 15.389 34.8004 14.5432C35.6619 13.3888 34.8703 11 31.7851 11C29.0026 11 19.6072 11 19.6072 11Z" fill="white"/>
<path d="M16.6504 20.1658L20.8882 14.5195C20.8882 14.5195 25.58 14.5195 26.1388 14.5195C26.7209 14.5195 26.7093 14.7367 26.4299 15.1139C26.1388 15.5025 25.6499 16.154 25.3588 16.5426C25.2075 16.7369 24.9397 17.1027 25.8361 17.1027C26.7792 17.1027 32.8797 17.1027 32.8797 17.1027C32.2976 17.8913 30.3999 20.1658 26.9887 20.1658C24.2062 20.1658 16.6504 20.1658 16.6504 20.1658Z" fill="white"/>
<path d="M40.9012 17.0938L38.6077 20.1569H32.5537L34.8472 17.0938H40.9012Z" fill="white"/>
<path d="M50.18 16.4063H35.3594L39.4225 11H45.4765L43.148 14.0975H45.8607L48.1775 11H54.2315L50.18 16.4063Z" fill="white"/>
<path d="M49.6678 17.1016L47.3743 20.1647H41.3203L43.6138 17.1016H49.6678Z" fill="white"/>
<path d="M8 18.3047H16.9296L16.4406 18.9562H8V18.3047Z" fill="white"/>
<path d="M8 17.1016H17.8377L17.3487 17.7416H8V17.1016Z" fill="white"/>
<path d="M8 19.5156H16.0215L15.5325 20.1671H8V19.5156Z" fill="white"/>
<path d="M74.0002 18.9562H65.1172L65.5945 18.3047H74.0002V18.9562Z" fill="white"/>
<path d="M74.0001 20.1671H64.209L64.698 19.5156H74.0001V20.1671Z" fill="white"/>
<path d="M66.5022 17.1016H73.9998V17.7416L66.0132 17.7531L66.5022 17.1016Z" fill="white"/>
<path d="M62.6256 11L58.5741 16.4063H52.1592L56.2107 11H62.6256Z" fill="white"/>
<path d="M51.635 17.1016C51.635 17.1016 51.1926 17.6959 50.9714 17.9817C50.2146 18.9875 50.8782 20.1647 53.3697 20.1647C56.2337 20.1647 63.1026 20.1647 63.1026 20.1647L65.3961 17.1016H51.635Z" fill="white"/>
</g>
<defs>
<clipPath id="clip0_193_5160">
<rect width="66" height="9.16667" fill="white" transform="translate(8 11)"/>
</clipPath>
</defs>
</svg>
