<svg width="24" height="24" viewBox="0 0 24 24" fill="none" xmlns="http://www.w3.org/2000/svg">
<path fill-rule="evenodd" clip-rule="evenodd" d="M7.84259 2.06C8.90266 2.01091 9.24065 2 11.941 2C14.6413 2 14.9793 2.01182 16.0385 2.06C17.0976 2.10818 17.8206 2.27818 18.4532 2.52455C19.1157 2.77636 19.7166 3.17 20.2137 3.67909C20.7198 4.17818 21.1102 4.78182 21.3596 5.44909C21.6054 6.08545 21.7735 6.81273 21.8223 7.87636C21.8711 8.94455 21.882 9.28455 21.882 12C21.882 14.7164 21.8702 15.0564 21.8223 16.1227C21.7744 17.1864 21.6054 17.9136 21.3596 18.55C21.1102 19.2174 20.7191 19.822 20.2137 20.3218C19.7166 20.8309 19.1157 21.2236 18.4532 21.4745C17.8206 21.7218 17.0976 21.8909 16.0403 21.94C14.9793 21.9891 14.6413 22 11.941 22C9.24065 22 8.90266 21.9882 7.84259 21.94C6.78523 21.8918 6.06225 21.7218 5.42964 21.4745C4.76623 21.2236 4.16517 20.8302 3.66828 20.3218C3.16254 19.8224 2.77116 19.2181 2.52145 18.5509C2.27654 17.9145 2.10845 17.1873 2.05965 16.1236C2.01084 15.0555 2 14.7155 2 12C2 9.28364 2.01175 8.94364 2.05965 7.87818C2.10754 6.81273 2.27654 6.08545 2.52145 5.44909C2.77153 4.78189 3.1632 4.17756 3.66918 3.67818C4.16536 3.16955 4.76583 2.77586 5.42874 2.52455C6.06135 2.27818 6.78523 2.10909 7.84259 2.06ZM15.9581 3.86C14.9097 3.81182 14.5952 3.80182 11.941 3.80182C9.28674 3.80182 8.97225 3.81182 7.92392 3.86C6.95423 3.90455 6.42826 4.06727 6.07761 4.20455C5.614 4.38636 5.28233 4.60182 4.9344 4.95182C4.60458 5.27459 4.35075 5.66753 4.19154 6.10182C4.05507 6.45455 3.89331 6.98364 3.84902 7.95909C3.80113 9.01364 3.79119 9.33 3.79119 12C3.79119 14.67 3.80113 14.9864 3.84902 16.0409C3.89331 17.0164 4.05507 17.5455 4.19154 17.8982C4.35059 18.3318 4.60454 18.7255 4.9344 19.0482C5.25522 19.38 5.64653 19.6355 6.07761 19.7955C6.42826 19.9327 6.95423 20.0955 7.92392 20.14C8.97225 20.1882 9.28584 20.1982 11.941 20.1982C14.5961 20.1982 14.9097 20.1882 15.9581 20.14C16.9277 20.0955 17.4537 19.9327 17.8044 19.7955C18.268 19.6136 18.5996 19.3982 18.9476 19.0482C19.2774 18.7255 19.5314 18.3318 19.6904 17.8982C19.8269 17.5455 19.9887 17.0164 20.033 16.0409C20.0808 14.9864 20.0908 14.67 20.0908 12C20.0908 9.33 20.0808 9.01364 20.033 7.95909C19.9887 6.98364 19.8269 6.45455 19.6904 6.10182C19.5097 5.63545 19.2955 5.30182 18.9476 4.95182C18.6267 4.62006 18.2361 4.36474 17.8044 4.20455C17.4537 4.06727 16.9277 3.90455 15.9581 3.86ZM10.6713 15.0827C11.3804 15.3797 12.17 15.4197 12.9052 15.1961C13.6404 14.9725 14.2757 14.499 14.7024 13.8566C15.1292 13.2142 15.321 12.4426 15.2451 11.6737C15.1691 10.9049 14.8302 10.1863 14.2862 9.64091C13.9393 9.29225 13.52 9.02528 13.0583 8.85922C12.5966 8.69317 12.104 8.63215 11.6161 8.68056C11.1281 8.72897 10.6569 8.88562 10.2364 9.13921C9.81584 9.3928 9.45641 9.73704 9.18399 10.1471C8.91157 10.5572 8.73293 11.023 8.66093 11.5109C8.58893 11.9988 8.62535 12.4966 8.76759 12.9687C8.90983 13.4407 9.15433 13.8751 9.4835 14.2407C9.81268 14.6062 10.2183 14.8938 10.6713 15.0827ZM8.32789 8.36545C8.80237 7.88816 9.36566 7.50955 9.98559 7.25124C10.6055 6.99293 11.27 6.85998 11.941 6.85998C12.612 6.85998 13.2764 6.99293 13.8964 7.25124C14.5163 7.50955 15.0796 7.88816 15.5541 8.36545C16.0286 8.84275 16.4049 9.40938 16.6617 10.033C16.9185 10.6566 17.0507 11.325 17.0507 12C17.0507 12.675 16.9185 13.3434 16.6617 13.967C16.4049 14.5906 16.0286 15.1573 15.5541 15.6345C14.5958 16.5985 13.2962 17.14 11.941 17.14C10.5858 17.14 9.28614 16.5985 8.32789 15.6345C7.36964 14.6706 6.8313 13.3632 6.8313 12C6.8313 10.6368 7.36964 9.3294 8.32789 8.36545ZM18.1839 7.62545C18.3015 7.51388 18.3956 7.37971 18.4607 7.23089C18.5259 7.08206 18.5606 6.92161 18.563 6.75903C18.5653 6.59645 18.5352 6.43504 18.4745 6.28437C18.4137 6.1337 18.3235 5.99683 18.2092 5.88185C18.0949 5.76688 17.9588 5.67614 17.8091 5.61502C17.6593 5.55389 17.4988 5.52361 17.3372 5.52598C17.1756 5.52835 17.0161 5.56332 16.8681 5.62881C16.7202 5.69431 16.5868 5.789 16.4759 5.90727C16.2602 6.1373 16.1421 6.44284 16.1467 6.75903C16.1512 7.07522 16.2781 7.37716 16.5004 7.60077C16.7227 7.82437 17.0229 7.95203 17.3372 7.95664C17.6515 7.96125 17.9553 7.84245 18.1839 7.62545Z" fill="#EA5734"/>
</svg>
