<svg width="110" height="33" viewBox="0 0 110 33" fill="none" xmlns="http://www.w3.org/2000/svg">
<g clip-path="url(#clip0_541_4587)">
<path d="M14.2969 30.6108L10.2913 26.6099V32.999H0V22.64H6.37815L2.37255 18.608L12.8487 0.898438V20.0967H31.8908L14.2969 30.6108Z" fill="#E95634"/>
<path d="M16.762 15.9417V0H20.8908V6.82331H20.9524L27.1149 0H32.0141L24.958 7.56767L32.2606 15.9417H27.3306L20.9524 8.74624H20.9216V15.9417H16.762Z" fill="#003F4B"/>
<path d="M33.678 15.9417V0H44.8629V3.22556H37.622V6.26504H44.339V9.4906H37.622V12.7782H44.8629V16.0038H33.678V15.9417Z" fill="#003F4B"/>
<path d="M48.3755 15.9417V0H51.3951L58.6668 9.14944V0H62.4875V15.9417H59.4679L52.1962 6.82331V15.9727H48.3755V15.9417Z" fill="#003F4B"/>
<path d="M66.3081 15.9417V0H69.3277L76.5994 9.14944V0H80.4202V15.9417H77.4005L70.1596 6.82331V15.9727H66.3081V15.9417Z" fill="#003F4B"/>
<path d="M84.241 15.9417V0H95.4258V3.22556H88.185V6.26504H94.902V9.4906H88.185V12.7782H95.4258V16.0038H84.241V15.9417Z" fill="#003F4B"/>
<path d="M98.9385 15.9417V0H110V3.22556H103.067V6.45113H109.507V9.61466H103.067V15.9417H98.9385Z" fill="#003F4B"/>
<path d="M47.1736 25.0596C46.8039 25.0596 46.4341 24.9976 46.0952 24.9045C45.7562 24.8115 45.4481 24.6874 45.2324 24.5323L45.5714 23.5399C45.787 23.6949 46.0335 23.788 46.3109 23.881C46.5882 23.9741 46.8963 24.0051 47.1736 24.0051C47.4817 24.0051 47.6974 23.9741 47.8207 23.881C47.9439 23.788 48.0055 23.6949 48.0055 23.5709C48.0055 23.4778 47.9747 23.3848 47.8823 23.3227C47.7898 23.2607 47.6358 23.1987 47.4201 23.1677L46.619 22.9816C45.7562 22.7955 45.3249 22.3303 45.3249 21.6169C45.3249 21.3068 45.4173 21.0276 45.5714 20.7795C45.7562 20.5314 45.9719 20.3453 46.28 20.2212C46.5882 20.0972 46.9579 20.0352 47.3585 20.0352C47.6974 20.0352 48.0055 20.0972 48.3137 20.1902C48.6218 20.2833 48.8683 20.4073 49.0531 20.5624L48.7142 21.4929C48.5293 21.3688 48.3445 21.2758 48.098 21.1827C47.8823 21.1207 47.6358 21.0897 47.3585 21.0897C47.112 21.0897 46.8963 21.1207 46.773 21.2137C46.6498 21.3068 46.5574 21.4308 46.5574 21.5549C46.5574 21.6479 46.5882 21.741 46.6806 21.803C46.773 21.865 46.8963 21.9271 47.112 21.9581L47.9131 22.1442C48.8067 22.3303 49.238 22.7955 49.238 23.4778C49.238 23.788 49.1456 24.0671 48.9915 24.3152C48.8375 24.5634 48.591 24.7184 48.2828 24.8735C47.9439 24.9976 47.605 25.0596 47.1736 25.0596Z" fill="#003F4B"/>
<path d="M50.2241 24.9983V20.1289H51.4874V22.0208H53.4902V20.1289H54.7535V24.9983H53.4902V23.0443H51.4874V24.9983H50.2241Z" fill="#003F4B"/>
<path d="M58.3585 25.0596C57.8655 25.0596 57.4342 24.9665 57.0644 24.7494C56.6947 24.5323 56.4174 24.2532 56.2017 23.881C55.986 23.5088 55.8936 23.0746 55.8936 22.5474C55.8936 22.0511 55.986 21.5859 56.2017 21.2137C56.4174 20.8415 56.6947 20.5314 57.0644 20.3453C57.4342 20.1282 57.8655 20.0352 58.3585 20.0352C58.8515 20.0352 59.2829 20.1282 59.6527 20.3453C60.0224 20.5624 60.2997 20.8415 60.5154 21.2137C60.7311 21.5859 60.8235 22.0201 60.8235 22.5474C60.8235 23.0436 60.7311 23.4778 60.5154 23.881C60.2997 24.2532 60.0224 24.5634 59.6527 24.7494C59.2829 24.9665 58.8515 25.0596 58.3585 25.0596ZM58.3585 24.0051C58.7283 24.0051 59.0056 23.881 59.1905 23.6329C59.4062 23.3848 59.4986 23.0126 59.4986 22.5784C59.4986 22.1442 59.4062 21.772 59.1905 21.5239C58.9748 21.2758 58.6975 21.1517 58.3585 21.1517C57.9888 21.1517 57.7115 21.2758 57.5266 21.5239C57.3109 21.772 57.2185 22.1442 57.2185 22.5784C57.2185 23.0126 57.3109 23.3848 57.5266 23.6329C57.7115 23.881 57.9888 24.0051 58.3585 24.0051Z" fill="#003F4B"/>
<path d="M61.9636 24.9983V20.1289H64.3054C64.86 20.1289 65.2914 20.284 65.5687 20.5631C65.8768 20.8423 66.0308 21.2454 66.0308 21.7417C66.0308 22.2379 65.8768 22.6411 65.5687 22.9203C65.2605 23.1994 64.8292 23.3545 64.3054 23.3545H63.2269V25.0293H61.9636V24.9983ZM63.2269 22.331H64.0589C64.5519 22.331 64.7984 22.1139 64.7984 21.7107C64.7984 21.3075 64.5519 21.0904 64.0589 21.0904H63.2269V22.331Z" fill="#003F4B"/>
<path d="M71.4845 25.0603C70.7758 25.0603 70.252 24.8742 69.8823 24.533C69.5125 24.1919 69.3276 23.6336 69.3276 22.9203V20.1289H70.5909V22.9513C70.5909 23.2924 70.6834 23.5716 70.8374 23.7577C70.9915 23.9438 71.2072 24.0368 71.5153 24.0368C71.8234 24.0368 72.0391 23.9438 72.1932 23.7577C72.3472 23.5716 72.4397 23.3235 72.4397 22.9513V20.1289H73.6722V22.9203C73.6722 23.6336 73.4873 24.1609 73.1176 24.533C72.7478 24.9052 72.1932 25.0603 71.4845 25.0603Z" fill="#003F4B"/>
<path d="M76.014 24.9983V21.1524H74.4734V20.1289H78.8179V21.1524H77.2773V24.9983H76.014Z" fill="#003F4B"/>
<path d="M79.6807 24.9983V20.1289H83.1008V21.0904H80.8823V22.0208H82.9468V23.0133H80.8823V24.0058H83.1008V24.9983H79.6807Z" fill="#003F4B"/>
<path d="M84.3025 24.9983V20.1289H85.2269L87.4453 22.9203V20.1289H88.6162V24.9983H87.6918L85.4734 22.2069V24.9983H84.3025Z" fill="#003F4B"/>
<path d="M91.6975 25.0596C91.3278 25.0596 90.958 24.9976 90.6191 24.9045C90.2802 24.8115 89.972 24.6874 89.7563 24.5323L90.0953 23.5399C90.311 23.6949 90.5575 23.788 90.8348 23.881C91.1121 23.9741 91.4202 24.0051 91.6975 24.0051C92.0057 24.0051 92.2213 23.9741 92.3446 23.881C92.4678 23.788 92.5295 23.6949 92.5295 23.5709C92.5295 23.4778 92.4986 23.3848 92.4062 23.3227C92.3138 23.2607 92.1597 23.1987 91.944 23.1677L91.1429 22.9816C90.2802 22.7955 89.8488 22.3303 89.8488 21.6169C89.8488 21.3068 89.9412 21.0276 90.0953 20.7795C90.2802 20.5314 90.4959 20.3453 90.804 20.2212C91.1121 20.0972 91.4818 20.0352 91.8824 20.0352C92.2213 20.0352 92.5295 20.0972 92.8376 20.1902C93.1457 20.2833 93.3922 20.4073 93.5771 20.5624L93.2381 21.4929C93.0533 21.3688 92.8684 21.2758 92.6219 21.1827C92.4062 21.1207 92.1597 21.0897 91.8824 21.0897C91.6359 21.0897 91.4202 21.1207 91.297 21.2137C91.1737 21.3068 91.0813 21.4308 91.0813 21.5549C91.0813 21.6479 91.1121 21.741 91.2045 21.803C91.297 21.865 91.4202 21.9271 91.6359 21.9581L92.437 22.1442C93.3306 22.3303 93.7619 22.7955 93.7619 23.4778C93.7619 23.788 93.6695 24.0671 93.5155 24.3152C93.3614 24.5634 93.1149 24.7184 92.8068 24.8735C92.4678 24.9976 92.1289 25.0596 91.6975 25.0596Z" fill="#003F4B"/>
<path d="M94.7478 24.9983V20.1289H96.0111V24.9983H94.7478Z" fill="#003F4B"/>
<path d="M97.3052 24.9983V20.1289H98.5685V23.9438H100.725V24.9983H97.3052Z" fill="#003F4B"/>
<path d="M101.711 24.9983V20.1289H102.975V24.9983H101.711Z" fill="#003F4B"/>
</g>
<defs>
<clipPath id="clip0_541_4587">
<rect width="110" height="33" fill="white"/>
</clipPath>
</defs>
</svg>
