<svg width="131" height="40" viewBox="0 0 131 40" fill="none" xmlns="http://www.w3.org/2000/svg">
<g clip-path="url(#clip0_193_5137)">
<path d="M17.0263 37.1049L12.256 32.2553V39.9996H0V27.4432H7.5958L2.82549 22.556L15.3017 1.08984V24.3605H37.979L17.0263 37.1049Z" fill="#E95634"/>
<path d="M19.9619 19.3233V0H24.879V8.27068H24.9524L32.2913 0H38.1258L29.7227 9.17293L38.4193 19.3233H32.5482L24.9524 10.6015H24.9157V19.3233H19.9619Z" fill="white"/>
<path d="M40.1074 19.3233V0H53.4276V3.90977H44.8043V7.59399H52.8038V11.5038H44.8043V15.4887H53.4276V19.3985H40.1074V19.3233Z" fill="white"/>
<path d="M57.6108 19.3233V0H61.2069L69.8669 11.0902V0H74.417V19.3233H70.8209L62.161 8.27068V19.3609H57.6108V19.3233Z" fill="white"/>
<path d="M78.9668 19.3233V0H82.5629L91.2228 11.0902V0H95.773V19.3233H92.1769L83.5536 8.27068V19.3609H78.9668V19.3233Z" fill="white"/>
<path d="M100.323 19.3233V0H113.643V3.90977H105.02V7.59399H113.02V11.5038H105.02V15.4887H113.643V19.3985H100.323V19.3233Z" fill="white"/>
<path d="M117.827 19.3233V0H131V3.90977H122.744V7.81955H130.413V11.6541H122.744V19.3233H117.827Z" fill="white"/>
<path d="M56.1794 30.3754C55.7391 30.3754 55.2988 30.3002 54.8951 30.1874C54.4915 30.0746 54.1245 29.9243 53.8677 29.7363L54.2713 28.5333C54.5282 28.7212 54.8217 28.834 55.152 28.9468C55.4822 29.0596 55.8492 29.0972 56.1794 29.0972C56.5464 29.0972 56.8032 29.0596 56.95 28.9468C57.0968 28.834 57.1702 28.7212 57.1702 28.5709C57.1702 28.4581 57.1335 28.3453 57.0234 28.2701C56.9133 28.1949 56.7299 28.1197 56.473 28.0821L55.5189 27.8566C54.4915 27.631 53.9778 27.0671 53.9778 26.2024C53.9778 25.8265 54.0878 25.4882 54.2713 25.1874C54.4915 24.8867 54.7483 24.6611 55.1153 24.5107C55.4822 24.3603 55.9226 24.2852 56.3996 24.2852C56.8032 24.2852 57.1702 24.3603 57.5371 24.4731C57.9041 24.5859 58.1976 24.7363 58.4178 24.9243L58.0142 26.0521C57.794 25.9017 57.5738 25.7889 57.2803 25.6761C57.0234 25.6009 56.7299 25.5634 56.3996 25.5634C56.106 25.5634 55.8492 25.6009 55.7024 25.7137C55.5556 25.8265 55.4455 25.9769 55.4455 26.1273C55.4455 26.24 55.4822 26.3528 55.5923 26.428C55.7024 26.5032 55.8492 26.5784 56.106 26.616L57.0601 26.8415C58.1243 27.0671 58.638 27.631 58.638 28.4581C58.638 28.834 58.5279 29.1724 58.3444 29.4731C58.161 29.7739 57.8674 29.9618 57.5004 30.1498C57.0968 30.3002 56.6932 30.3754 56.1794 30.3754Z" fill="white"/>
<path d="M59.812 30.3007V24.3984H61.3165V26.6917H63.7016V24.3984H65.2061V30.3007H63.7016V27.9323H61.3165V30.3007H59.812Z" fill="white"/>
<path d="M69.4995 30.3754C68.9124 30.3754 68.3987 30.2626 67.9584 29.9994C67.518 29.7363 67.1878 29.3979 66.9309 28.9468C66.674 28.4957 66.564 27.9694 66.564 27.3303C66.564 26.7288 66.674 26.1649 66.9309 25.7137C67.1878 25.2626 67.518 24.8867 67.9584 24.6611C68.3987 24.3979 68.9124 24.2852 69.4995 24.2852C70.0867 24.2852 70.6004 24.3979 71.0407 24.6611C71.4811 24.9243 71.8113 25.2626 72.0682 25.7137C72.325 26.1649 72.4351 26.6912 72.4351 27.3303C72.4351 27.9318 72.325 28.4581 72.0682 28.9468C71.8113 29.3979 71.4811 29.7739 71.0407 29.9994C70.6004 30.2626 70.0867 30.3754 69.4995 30.3754ZM69.4995 29.0972C69.9399 29.0972 70.2701 28.9468 70.4903 28.6461C70.7472 28.3453 70.8572 27.8942 70.8572 27.3679C70.8572 26.8415 70.7472 26.3904 70.4903 26.0897C70.2334 25.7889 69.9032 25.6385 69.4995 25.6385C69.0592 25.6385 68.729 25.7889 68.5088 26.0897C68.2519 26.3904 68.1418 26.8415 68.1418 27.3679C68.1418 27.8942 68.2519 28.3453 68.5088 28.6461C68.729 28.9468 69.0592 29.0972 69.4995 29.0972Z" fill="white"/>
<path d="M73.793 30.3007V24.3984H76.5818C77.2423 24.3984 77.756 24.5864 78.0862 24.9248C78.4532 25.2631 78.6367 25.7518 78.6367 26.3533C78.6367 26.9548 78.4532 27.4435 78.0862 27.7819C77.7193 28.1202 77.2056 28.3082 76.5818 28.3082H75.2974V30.3383H73.793V30.3007ZM75.2974 27.0676H76.2882C76.8753 27.0676 77.1689 26.8045 77.1689 26.3157C77.1689 25.827 76.8753 25.5639 76.2882 25.5639H75.2974V27.0676Z" fill="white"/>
<path d="M85.1316 30.3759C84.2876 30.3759 83.6638 30.1503 83.2235 29.7368C82.7832 29.3232 82.563 28.6466 82.563 27.7819V24.3984H84.0675V27.8195C84.0675 28.233 84.1776 28.5714 84.361 28.7969C84.5445 29.0225 84.8014 29.1353 85.1683 29.1353C85.5353 29.1353 85.7921 29.0225 85.9756 28.7969C86.1591 28.5714 86.2692 28.2706 86.2692 27.8195V24.3984H87.7369V27.7819C87.7369 28.6466 87.5168 29.2857 87.0764 29.7368C86.6361 30.1879 85.9756 30.3759 85.1316 30.3759Z" fill="white"/>
<path d="M90.5257 30.3007V25.639H88.6909V24.3984H93.8649V25.639H92.0301V30.3007H90.5257Z" fill="white"/>
<path d="M94.8921 30.3007V24.3984H98.9652V25.5639H96.3232V26.6917H98.7817V27.8947H96.3232V29.0977H98.9652V30.3007H94.8921Z" fill="white"/>
<path d="M100.396 30.3007V24.3984H101.497L104.139 27.7819V24.3984H105.534V30.3007H104.433L101.791 26.9172V30.3007H100.396Z" fill="white"/>
<path d="M109.203 30.3754C108.763 30.3754 108.323 30.3002 107.919 30.1874C107.515 30.0746 107.148 29.9243 106.892 29.7363L107.295 28.5333C107.552 28.7212 107.846 28.834 108.176 28.9468C108.506 29.0596 108.873 29.0972 109.203 29.0972C109.57 29.0972 109.827 29.0596 109.974 28.9468C110.121 28.834 110.194 28.7212 110.194 28.5709C110.194 28.4581 110.157 28.3453 110.047 28.2701C109.937 28.1949 109.754 28.1197 109.497 28.0821L108.543 27.8566C107.515 27.631 107.002 27.0671 107.002 26.2024C107.002 25.8265 107.112 25.4882 107.295 25.1874C107.515 24.8867 107.772 24.6611 108.139 24.5107C108.506 24.3603 108.947 24.2852 109.424 24.2852C109.827 24.2852 110.194 24.3603 110.561 24.4731C110.928 24.5859 111.222 24.7363 111.442 24.9243L111.038 26.0521C110.818 25.9017 110.598 25.7889 110.304 25.6761C110.047 25.6009 109.754 25.5634 109.424 25.5634C109.13 25.5634 108.873 25.6009 108.726 25.7137C108.58 25.8265 108.469 25.9769 108.469 26.1273C108.469 26.24 108.506 26.3528 108.616 26.428C108.726 26.5032 108.873 26.5784 109.13 26.616L110.084 26.8415C111.148 27.0671 111.662 27.631 111.662 28.4581C111.662 28.834 111.552 29.1724 111.368 29.4731C111.185 29.7739 110.891 29.9618 110.524 30.1498C110.121 30.3002 109.717 30.3754 109.203 30.3754Z" fill="white"/>
<path d="M112.836 30.3007V24.3984H114.34V30.3007H112.836Z" fill="white"/>
<path d="M115.882 30.3007V24.3984H117.386V29.0225H119.955V30.3007H115.882Z" fill="white"/>
<path d="M121.129 30.3007V24.3984H122.633V30.3007H121.129Z" fill="white"/>
</g>
<defs>
<clipPath id="clip0_193_5137">
<rect width="131" height="40" fill="white"/>
</clipPath>
</defs>
</svg>
