<svg width="203" height="207" viewBox="0 0 203 207" fill="none" xmlns="http://www.w3.org/2000/svg">
<g clip-path="url(#clip0_206_5122)">
<path d="M193.114 50.1557L189.982 49.4741L189.28 46.369C189.261 46.2554 189.166 46.1797 189.052 46.1797C188.938 46.1797 188.843 46.2554 188.824 46.369L188.103 49.4931L184.971 50.2315C184.857 50.2504 184.781 50.364 184.781 50.4776C184.781 50.5912 184.857 50.6859 184.971 50.7048L188.103 51.3864L188.805 54.4915C188.824 54.6051 188.919 54.6808 189.033 54.6808C189.147 54.6808 189.242 54.6051 189.261 54.4915L189.982 51.3675L193.114 50.6291C193.228 50.6101 193.304 50.4965 193.304 50.3829C193.304 50.2883 193.228 50.1936 193.114 50.1557Z" fill="#003F4B"/>
<path d="M10.9142 95.312L7.78231 94.6304L7.08001 91.5253C7.06103 91.4117 6.96612 91.3359 6.85224 91.3359C6.73835 91.3359 6.64345 91.4117 6.62446 91.5253L5.8842 94.6493L2.75231 95.3877C2.63842 95.4066 2.5625 95.5202 2.5625 95.6338C2.5625 95.7474 2.63842 95.8421 2.75231 95.861L5.8842 96.5427L6.5865 99.6477C6.60548 99.7613 6.70039 99.8371 6.81428 99.8371C6.92816 99.8371 7.02307 99.7613 7.04205 99.6477L7.76333 96.5237L10.8952 95.7853C11.0091 95.7664 11.085 95.6528 11.085 95.5392C11.104 95.4256 11.0091 95.3309 10.9142 95.312Z" fill="#003F4B"/>
<path d="M177.341 37.6966L175.728 37.3368L175.367 35.7275C175.348 35.6707 175.31 35.6328 175.253 35.6328C175.196 35.6328 175.139 35.6707 175.139 35.7275L174.779 37.3368L173.165 37.7155C173.108 37.7344 173.07 37.7723 173.07 37.8291C173.07 37.8859 173.108 37.9427 173.165 37.9427L174.779 38.3024L175.139 39.9118C175.158 39.9686 175.196 40.0065 175.253 40.0065C175.31 40.0065 175.367 39.9686 175.367 39.9118L175.728 38.3024L177.341 37.9238C177.398 37.9048 177.436 37.867 177.436 37.8102C177.436 37.7534 177.398 37.6966 177.341 37.6966Z" fill="#003F4B"/>
<path d="M8.75049 8.55601L8.95928 3.48183C9.05419 1.00154 11.5787 -0.64567 13.8944 0.244204C16.2291 1.13408 16.9883 4.0309 15.3939 5.96212L12.1671 9.86242L8.75049 8.55601Z" fill="#376975"/>
<path d="M7.36451 12.1914L4.11874 16.1106C2.52432 18.0229 3.30255 20.9387 5.61825 21.8286C7.95293 22.7184 10.4584 21.0712 10.5533 18.572L10.7621 13.4978L7.36451 12.1914Z" fill="#376975"/>
<path d="M5.31494 9.38829L6.90936 12.7395C7.55472 14.1027 9.16811 14.6707 10.5348 14.0459L13.7805 12.5123L12.1861 9.16109C11.5408 7.79788 9.92736 7.22987 8.56072 7.85468L5.31494 9.38829Z" fill="#003F4B"/>
<path d="M4.28981 11.3954C5.6526 11.3954 6.75736 10.2934 6.75736 8.93401C6.75736 7.57464 5.6526 6.47266 4.28981 6.47266C2.92702 6.47266 1.82227 7.57464 1.82227 8.93401C1.82227 10.2934 2.92702 11.3954 4.28981 11.3954Z" fill="#003F4B"/>
<path d="M1.75657 5.35302L0.586914 6.67188L2.25029 8.13968L3.41994 6.82083L1.75657 5.35302Z" fill="#003F4B"/>
<path d="M0.00257121 8.16887L-0.00927734 9.92969L2.21152 9.94456L2.22336 8.18374L0.00257121 8.16887Z" fill="#003F4B"/>
<path d="M57.5698 119.186L55.8426 118.826C56.0134 118.031 56.1652 117.236 56.3171 116.441L58.0444 116.763C57.8925 117.558 57.7407 118.372 57.5698 119.186ZM58.7846 112.389L57.0384 112.124C57.2472 110.666 57.437 109.208 57.5888 107.807L59.3351 107.997C59.1832 109.417 58.9934 110.912 58.7846 112.389ZM59.7147 103.566L57.9495 103.452C58.0444 101.976 58.0823 100.518 58.1013 99.0978L59.8666 99.1167C59.8476 100.575 59.7906 102.07 59.7147 103.566ZM57.9874 94.7809C57.9115 93.3041 57.7786 91.8652 57.6078 90.4641L59.3541 90.2369C59.5439 91.6758 59.6767 93.1526 59.7527 94.6673L57.9874 94.7809ZM56.9055 86.204C56.6018 84.7651 56.2412 83.364 55.8236 82.0387L57.5129 81.5275C57.9495 82.9096 58.3101 84.3675 58.6328 85.8632L56.9055 86.204ZM40.7526 78.5549C40.7336 78.5549 40.7336 78.5549 40.7526 78.5549C40.2401 78.5549 39.7086 78.536 39.1771 78.4981L39.31 76.7373C39.8035 76.7752 40.297 76.7941 40.7526 76.7941C41.6826 76.7941 42.6127 76.7184 43.4858 76.5858L43.7706 78.3277C42.7835 78.4792 41.7775 78.5549 40.7526 78.5549ZM54.343 77.9869C53.7736 76.6616 53.1093 75.3741 52.407 74.1623L53.9255 73.2725C54.6657 74.541 55.349 75.8853 55.9564 77.2864L54.343 77.9869ZM34.6027 77.4568C33.0842 76.7941 31.7745 75.8664 30.7495 74.6925L32.0592 73.5186C32.9323 74.5031 34.0332 75.2794 35.305 75.8474L34.6027 77.4568ZM48.1932 76.9834L47.4529 75.393C49.0663 74.6546 50.2241 73.7458 50.8885 73.1399L52.0843 74.4463C51.3251 75.128 50.0154 76.1504 48.1932 76.9834ZM49.9964 70.6407C49.1043 69.5047 48.1362 68.4444 47.1112 67.4977L48.307 66.2103C49.389 67.2137 50.414 68.3498 51.363 69.5426L49.9964 70.6407ZM54.7986 70.6218L53.2421 69.7887C53.9444 68.5012 54.5329 67.1948 55.0074 65.9073L56.6587 66.5132C56.1652 67.8764 55.5389 69.2586 54.7986 70.6218ZM28.4528 70.5271C28.3009 70.0159 28.187 69.4668 28.0921 68.9178C28.0352 68.5391 27.9972 68.1415 27.9972 67.7439C27.9972 67.0433 28.0921 66.3617 28.2819 65.6991L29.9713 66.1913C29.8194 66.6836 29.7625 67.2137 29.7625 67.7439C29.7625 68.0468 29.7815 68.3498 29.8384 68.6527C29.9143 69.126 30.0092 69.5994 30.1421 70.0348L28.4528 70.5271ZM43.7895 64.866C41.8914 63.6164 40.5058 63.143 40.3729 63.0862C40.278 63.0673 40.1831 63.0294 40.1072 63.0105L40.5817 61.3065C40.6766 61.3254 40.7905 61.3633 40.9044 61.4012C40.9993 61.439 42.5747 61.9502 44.7766 63.3892L43.7895 64.866ZM32.211 63.2945L31.281 61.7988C32.5527 61.0225 34.1092 60.6249 35.9124 60.6249H35.9693L35.9503 62.3857H35.9124C34.4508 62.3857 33.1981 62.6886 32.211 63.2945ZM57.8925 62.1396L56.1652 61.8177C56.431 60.4166 56.5638 59.0155 56.5828 57.6145L58.3481 57.6334C58.3291 59.1102 58.1772 60.6438 57.8925 62.1396ZM56.2222 53.3923C55.9944 52.0291 55.6338 50.6469 55.1592 49.2837L56.8296 48.7157C57.3421 50.1736 57.7217 51.6504 57.9684 53.0894L56.2222 53.3923ZM53.4509 45.3645C52.8246 44.1338 52.0843 42.8842 51.2681 41.6725L52.7297 40.7068C53.5838 41.9943 54.362 43.3007 55.0074 44.5882L53.4509 45.3645ZM48.7057 38.1887C47.8325 37.1095 46.8645 36.0113 45.8395 34.9321L47.1112 33.7204C48.1742 34.8375 49.1612 35.9545 50.0723 37.0716L48.7057 38.1887ZM42.7456 31.8838C41.7016 30.9372 40.6007 29.9715 39.4618 29.0249L40.5817 27.6617C41.7586 28.6273 42.8784 29.6118 43.9414 30.5964L42.7456 31.8838ZM36.0073 26.3363C34.8684 25.4843 33.6726 24.6323 32.4388 23.7992L33.4258 22.3413C34.6786 23.1934 35.8934 24.0643 37.0512 24.9163L36.0073 26.3363ZM28.7755 21.3947C27.5417 20.6373 26.2889 19.8611 25.0172 19.1416L25.8903 17.6269C27.181 18.3653 28.4528 19.1416 29.7055 19.9179L28.7755 21.3947ZM21.183 17.04C18.7914 15.7714 17.2729 15.0898 17.2539 15.0898L17.9752 13.4805C18.0321 13.4994 19.5506 14.181 21.9992 15.4685L21.183 17.04Z" fill="#003F4B"/>
<path d="M145.073 61.8354L137.974 59.4498L137.271 39.2856C145.965 32.6968 141.106 27.9823 141.106 27.9823L140.726 18.7617H106.028C99.5748 56.3637 115.993 52.7663 115.993 52.7663L115.576 60.6048L106.845 64.5051L107.186 79.614H146.268L145.073 61.8354Z" fill="white"/>
<path d="M147.237 80.4842H106.332L105.953 63.9363L114.722 60.0171L115.064 53.7311C113.602 53.769 111.002 53.4471 108.629 51.1751C103.466 46.2524 102.289 35.2899 105.155 18.6095L105.288 17.8711H141.58L141.979 27.6408C142.472 28.2277 143.478 29.7424 143.345 31.9008C143.194 34.5136 141.447 37.1454 138.183 39.7014L138.847 58.8053L145.946 61.191L147.237 80.4842ZM108.059 78.7234H145.338L144.238 62.4784L137.101 60.0928L136.36 38.8494L136.721 38.5654C139.739 36.2745 141.409 33.9267 141.542 31.7683C141.656 29.8181 140.479 28.6064 140.46 28.5875L140.214 28.3413L139.872 19.613H106.769C103.523 39.0956 106.636 46.8394 109.844 49.8876C112.634 52.5573 115.785 51.8946 115.804 51.8946L116.943 51.6485L116.43 61.172L107.737 65.0534L108.059 78.7234Z" fill="#003F4B"/>
<path d="M125.769 20.7669C125.769 20.7669 118.347 25.5571 105.687 20.7669L105.08 25.1784C105.08 25.1784 99.4991 21.2213 100.999 13.8751C100.999 13.8751 101.758 9.2364 109.559 8.3276C109.559 8.3276 112.862 1.58727 120.075 4.42729C120.075 4.42729 125.484 1.13286 130.742 6.07451C130.742 6.07451 135.392 5.92304 136.152 9.67188C136.152 9.67188 143.82 8.782 145.908 15.8063C145.908 15.8063 147.104 24.7997 140.65 28.7C140.65 28.7 136 25.6896 133.893 31.9945L131.198 32.7518L130.59 28.5486C130.571 28.5675 126.528 27.3558 125.769 20.7669Z" fill="#003F4B"/>
<path d="M107.832 36.6323C104.814 36.6323 102.365 34.1898 102.365 31.1794C102.365 28.169 104.814 25.7266 107.832 25.7266C110.85 25.7266 113.298 28.169 113.298 31.1794C113.298 34.1898 110.831 36.6323 107.832 36.6323ZM107.832 26.9004C105.459 26.9004 103.542 28.8127 103.542 31.1794C103.542 33.5461 105.459 35.4584 107.832 35.4584C110.204 35.4584 112.122 33.5461 112.122 31.1794C112.122 28.8127 110.185 26.9004 107.832 26.9004Z" fill="#003F4B"/>
<path d="M119.543 36.6323C116.525 36.6323 114.077 34.1898 114.077 31.1794C114.077 28.169 116.525 25.7266 119.543 25.7266C122.561 25.7266 125.01 28.169 125.01 31.1794C125.01 34.1898 122.561 36.6323 119.543 36.6323ZM119.543 26.9004C117.171 26.9004 115.253 28.8127 115.253 31.1794C115.253 33.5461 117.171 35.4584 119.543 35.4584C121.916 35.4584 123.833 33.5461 123.833 31.1794C123.833 28.8127 121.916 26.9004 119.543 26.9004Z" fill="#003F4B"/>
<path d="M107.908 33.2081C108.652 33.2081 109.255 32.6062 109.255 31.8638C109.255 31.1214 108.652 30.5195 107.908 30.5195C107.163 30.5195 106.56 31.1214 106.56 31.8638C106.56 32.6062 107.163 33.2081 107.908 33.2081Z" fill="#003F4B"/>
<path d="M119.543 33.2823C120.287 33.2823 120.891 32.6805 120.891 31.938C120.891 31.1956 120.287 30.5938 119.543 30.5938C118.799 30.5938 118.195 31.1956 118.195 31.938C118.195 32.6805 118.799 33.2823 119.543 33.2823Z" fill="#003F4B"/>
<path d="M130.981 29.0385L124.333 30.0117L124.504 31.1732L131.152 30.2L130.981 29.0385Z" fill="#003F4B"/>
<path d="M115.348 40.2292L110.261 39.699L113.412 30.2891L114.532 30.6677L111.837 38.6955L115.462 39.0742L115.348 40.2292Z" fill="#003F4B"/>
<path d="M112.255 26.3319C112.236 26.313 109.882 24.4764 105.25 25.0634L105.099 23.9084C110.262 23.2647 112.881 25.3474 112.995 25.442L112.255 26.3319L112.615 25.8775L112.255 26.3319Z" fill="#003F4B"/>
<path d="M115.861 26.1806L114.969 25.4232C115.007 25.3854 118.442 21.4851 124.061 25.0067L123.434 25.9912C118.689 23.0187 115.975 26.048 115.861 26.1806Z" fill="#003F4B"/>
<path d="M111.457 45.3032C110.945 44.7731 111.002 43.9022 111.628 43.4856C112.008 43.2206 112.501 43.0123 113.128 42.9934C114.532 42.9555 116.373 43.8454 117.247 44.3187C117.493 44.4512 117.531 44.792 117.322 44.9814C116.354 45.8334 113.412 47.3102 111.457 45.3032Z" fill="#003F4B"/>
<path d="M110.128 62.8957C110.128 62.8957 111.305 76.9632 127.173 76.3763C127.173 76.3763 140.251 75.051 144.067 61.5703C144.067 61.5703 161.548 65.925 175.765 73.4984C181.08 76.3384 184.971 81.2422 186.508 87.0548L198.884 128.841L167.432 129.125L163.75 122.536L169.33 197.286H88.5278L86.4778 136.017L60.6255 132.798L75.3738 86.7519C77.5756 79.8601 82.6436 74.2558 89.287 71.3589L110.128 62.8957Z" fill="#376975"/>
<path d="M170.299 198.174H87.6927L85.6237 136.81L59.4487 133.554L74.5198 86.5041C76.7975 79.3851 82.0553 73.5725 88.9264 70.581L110.907 61.6255L111.001 62.8183C111.058 63.3863 112.33 76.0339 127.097 75.5037C127.895 75.4091 139.644 73.8944 143.212 61.3415L143.44 60.5273L144.275 60.7356C144.446 60.7735 162.023 65.2039 176.164 72.7395C181.668 75.6741 185.749 80.8241 187.344 86.8449L200.042 129.729L166.901 130.032L164.946 126.473L170.299 198.174ZM89.382 196.413H168.4L162.592 118.615L167.964 128.252L197.707 127.968L185.654 87.2993C184.174 81.7139 180.435 76.9806 175.348 74.2731C163.124 67.7599 148.261 63.5946 144.674 62.629C142.51 69.3504 138.05 72.9477 134.614 74.8032C130.761 76.8859 127.401 77.2267 127.268 77.2456H127.211C126.889 77.2646 126.547 77.2646 126.243 77.2646C118.271 77.2646 114.095 73.5347 111.97 70.3349C110.375 67.9303 109.711 65.5069 109.426 64.1247L89.6098 72.1904C83.2131 74.9736 78.316 80.3886 76.1901 87.0342L61.7644 132.058L87.313 135.239L89.382 196.413Z" fill="#003F4B"/>
<path d="M148.356 110.379H37.2598V197.151H148.356V110.379Z" fill="#FF8960"/>
<path d="M149.23 198.022H36.3677V109.508H149.211V198.022H149.23ZM38.1329 196.261H147.464V111.25H38.1329V196.261Z" fill="#003F4B"/>
<path d="M12.1289 133.687H79.1323L106.161 110.531H37.1081L12.1289 133.687Z" fill="white"/>
<path d="M79.455 134.557H9.88916L36.7665 109.641H108.553L79.455 134.557ZM14.3687 132.796H78.8097L103.789 111.401H37.4498L14.3687 132.796Z" fill="#003F4B"/>
<path d="M148.338 110.379H105.725V197.151H148.338V110.379Z" fill="#003F4B"/>
<path d="M166.407 133.687H119.979L105.876 110.531H148.489L166.407 133.687Z" fill="white"/>
<path d="M168.211 134.557H119.486L104.301 109.641H148.907L168.211 134.557ZM120.473 132.796H164.623L148.053 111.401H107.433L120.473 132.796Z" fill="#003F4B"/>
<path d="M37.2603 163.73C37.2603 163.73 29.1744 168.615 29.554 177.495C29.6299 179.313 30.2183 181.055 31.2623 182.531C33.2743 185.39 37.8487 189.897 46.9407 190.692C46.9407 190.692 51.0596 191.279 49.8828 188.344C49.8828 188.344 52.8249 186.886 51.648 184.235C51.648 184.235 54.2864 181.888 52.8249 179.843C52.8249 179.843 54.8748 176.908 53.1096 175.734C51.3443 174.56 43.4102 173.103 43.4102 173.103C43.4102 173.103 49.2944 171.929 48.4022 169.297C47.5291 166.665 37.2413 167.044 37.2413 167.044V163.73H37.2603Z" fill="white"/>
<path d="M47.7566 191.64C47.3391 191.64 47.0164 191.602 46.8645 191.583C37.317 190.75 32.5528 185.884 30.5597 183.063C29.4209 181.454 28.7755 179.542 28.6806 177.554C28.282 168.257 36.4629 163.202 36.8045 162.994L38.1522 162.18V166.156C41.398 166.099 48.364 166.307 49.2751 169.034C49.5029 169.734 49.446 170.454 49.0663 171.097C48.6108 171.874 47.7377 172.48 46.8266 172.915C49.3131 173.464 52.483 174.278 53.6218 175.036C54.1913 175.414 54.5519 175.963 54.6848 176.626C54.9125 177.838 54.2862 179.182 53.8686 179.883C54.6848 181.605 53.6408 183.442 52.6917 184.483C53.2612 186.471 52.0464 187.967 50.9455 188.762C51.1163 189.652 50.8506 190.258 50.5659 190.618C49.8636 191.47 48.6298 191.64 47.7566 191.64ZM36.368 165.474C34.1851 167.254 30.1611 171.4 30.4269 177.478C30.5028 179.125 31.0343 180.716 31.9833 182.06C33.8055 184.635 38.1712 189.084 47.0164 189.842H47.0733C47.8516 189.955 48.9145 189.842 49.1613 189.539C49.2562 189.406 49.2372 189.103 49.0663 188.706L48.7626 187.948L49.4839 187.588C49.7117 187.475 51.6288 186.434 50.8316 184.635L50.5659 184.048L51.0404 183.612C51.0594 183.593 53.0714 181.757 52.0843 180.375L51.7237 179.864L52.0843 179.352C52.483 178.784 53.0524 177.629 52.9195 176.929C52.8816 176.721 52.7867 176.588 52.6158 176.474C51.439 175.698 46.2382 174.524 43.2391 173.975L38.7406 173.142L43.2202 172.252C44.5678 171.987 46.9215 171.192 47.4909 170.207C47.6048 169.999 47.6238 169.81 47.5479 169.583C47.1493 168.39 41.7966 167.765 37.2411 167.935L36.33 167.973V165.474H36.368Z" fill="#003F4B"/>
<path d="M197.84 128.629L168.325 128.932L171.779 138.683L126.984 184.824C126.984 184.824 116.696 177.989 110.603 177.515C109.331 177.421 108.23 178.424 108.211 179.693C108.192 181.321 108.952 183.706 112.539 186.092C112.539 186.092 106.94 190.371 102.992 192.548C101.568 193.344 100.752 194.953 101.112 196.543C101.492 198.153 102.973 199.762 107.433 199.724C107.433 199.724 107.433 204.325 113.393 203.038C113.393 203.038 115.102 207.279 120.188 205.158C120.188 205.158 121.612 207.979 128.274 203.89L196.037 157.01C200.763 153.735 202.927 147.865 201.466 142.318L197.84 128.629Z" fill="white"/>
<path d="M122.352 206.996C121.916 206.996 121.498 206.939 121.137 206.844C120.587 206.693 120.207 206.447 119.923 206.219C118.252 206.787 116.753 206.806 115.424 206.257C114.095 205.708 113.298 204.705 112.9 204.061C110.888 204.383 109.312 204.08 108.173 203.152C107.205 202.376 106.826 201.354 106.655 200.615C102.08 200.445 100.638 198.457 100.239 196.753C99.8026 194.821 100.752 192.777 102.555 191.792C105.44 190.202 109.274 187.418 111.039 186.131C107.964 183.745 107.3 181.341 107.319 179.694C107.338 178.842 107.699 178.027 108.325 177.459C108.951 176.891 109.806 176.589 110.66 176.664C116.107 177.081 124.497 182.212 126.851 183.726L170.773 138.494L167.072 128.1L198.505 127.797L202.301 142.148C203.857 148.037 201.522 154.323 196.511 157.788L128.73 204.686L128.711 204.705C126.167 206.219 124.041 206.996 122.352 206.996ZM120.948 204.762C121.308 205.292 123.187 205.973 127.762 203.171L195.505 156.292C199.909 153.244 201.959 147.715 200.592 142.546L197.157 129.52L169.577 129.785L172.804 138.892L127.097 185.961L126.49 185.563C126.395 185.487 116.316 178.842 110.527 178.387C110.147 178.349 109.787 178.482 109.521 178.728C109.236 178.974 109.084 179.315 109.084 179.694C109.065 181.663 110.413 183.632 113.013 185.355L114.038 186.036L113.051 186.775C112.824 186.945 107.357 191.111 103.39 193.288C102.27 193.913 101.682 195.162 101.947 196.317C102.327 198.002 104.168 198.854 107.414 198.816H108.306V199.706C108.306 199.706 108.344 200.994 109.293 201.751C110.128 202.414 111.438 202.546 113.184 202.168L113.906 202.016L114.19 202.698C114.19 202.698 114.76 204.042 116.126 204.591C117.151 205.008 118.404 204.932 119.828 204.326L120.663 203.985L120.948 204.762Z" fill="#003F4B"/>
<path d="M122.557 88.3096L115.503 103.559L117.106 104.296L124.16 89.0474L122.557 88.3096Z" fill="#003F4B"/>
<path d="M101.91 81.0703H100.145V103.942H101.91V81.0703Z" fill="#003F4B"/>
<path d="M80.399 88.386L78.7505 89.0156L84.0381 102.79L85.6866 102.16L80.399 88.386Z" fill="#003F4B"/>
</g>
<defs>
<clipPath id="clip0_206_5122">
<rect width="202.776" height="207" fill="white"/>
</clipPath>
</defs>
</svg>
